/* XPM */
static char *_e09ed5faa774399bba52db0d682564d7DoWj8gJdAq2ua4h[] = {
/* columns rows colors chars-per-pixel */
"64 64 121 2 ",
"   c #A2A09F",
".  c #A09E9D",
"X  c #9B9999",
"o  c #999797",
"O  c #9B9998",
"+  c #9C9A99",
"@  c #959392",
"#  c #918E8D",
"$  c #94918F",
"%  c #969493",
"&  c #989696",
"*  c #999796",
"=  c #9A9897",
"-  c #979695",
";  c #979594",
":  c #989695",
">  c #989796",
",  c #8F8D8C",
"<  c #908D8C",
"1  c #949392",
"2  c #9A9998",
"3  c #9F9D9C",
"4  c #A1A09F",
"5  c #A19F9E",
"6  c #9D9B9A",
"7  c #969593",
"8  c #928F8D",
"9  c #918E8C",
"0  c #949190",
"q  c #979595",
"w  c #999897",
"e  c #9E9C9B",
"r  c #9A9898",
"t  c #949291",
"y  c #93918F",
"u  c #9A9896",
"i  c #9B9A99",
"p  c #969594",
"a  c #908E8C",
"s  c #8B8887",
"d  c #949290",
"f  c #979493",
"g  c #959291",
"h  c #8E8C8A",
"j  c #8D8B89",
"k  c #A09F9E",
"l  c #93908F",
"z  c #908E8D",
"x  c #939290",
"c  c #969392",
"v  c #92908E",
"b  c #918F8D",
"n  c #9D9B9B",
"m  c #918F8E",
"M  c #959391",
"N  c #969492",
"B  c #939190",
"V  c #9A9797",
"C  c #979593",
"Z  c #979494",
"A  c #928F8E",
"S  c #93908E",
"D  c #92908F",
"F  c #9D9A99",
"G  c black",
"H  c #959290",
"J  c #9C9998",
"K  c #9A9796",
"L  c #C7DCD0",
"P  c white",
"I  c #9D9C9B",
"U  c #989795",
"Y  c #989694",
"T  c #9F9C9B",
"R  c #989594",
"E  c #9F9E9D",
"W  c #CD683D",
"Q  c #A3A1A0",
"!  c #999696",
"~  c #9A9795",
"^  c #4D65B4",
"/  c #E6904E",
"(  c #9C9B9A",
")  c #323353",
"_  c #4D9BE6",
"`  c #959492",
"'  c #959493",
"]  c #9C9A9A",
"[  c #959393",
"{  c #979694",
"}  c #949391",
"|  c #484A77",
" . c #9BABB2",
".. c #969393",
"X. c #908D8D",
"o. c #694F62",
"O. c #959292",
"+. c #8F8D8B",
"@. c #8E8C8B",
"#. c #8E8B8A",
"$. c #8F8C8B",
"%. c #7F708A",
"&. c #9E4539",
"*. c #7A3045",
"=. c #9E9D9C",
"-. c #9E9C9C",
";. c #969391",
":. c #A3A1A1",
">. c #A2A1A0",
",. c #9B9997",
"<. c #908F8D",
"1. c #8C8A88",
"2. c #8D8B8A",
"3. c #8D8C8A",
"4. c #989595",
"5. c #9E9C9A",
"6. c #A4A2A1",
"7. c #9C9A98",
"8. c #969494",
"9. c #999694",
"0. c #9B9898",
/* pixels */
"  . X o o O + @ # $ % & o * = o o - ; : > : ; % , < # 1 2 3 3 O . O = = O + = = .   4 5 6 7 $ 8 8 9 0 q > - w 5 e r o = + O t # ",
"e w - * O + * ; ; y @ & o o = o = o O * u i p a s d - w = O e . 3 O + 6 6 O * . 5   . + & % @ f % g 7 > o O e 6 > ; * + + * ; ; ",
"o : - * = * : o > ; d % > > > > o o o % @ - @ h j t ; - 2 3 k 4 = o o = * ; @ - 6 r = : ; - ; ; l g % & o = o o - - * = & : * > ",
"; O * O e e = y z f 0 0 ; & p x - - ; % @ c c 8 h @ & = 6 5 . o ; 0 l t d v b d > - * * > > - ; ; - > & > * ; ; + > i e e * v < ",
"o + + e 3 n : # @ % m v M % ; ; > o & - % N : @ v p * e   5 3 ; @ l z B c $ y ; o = o o V : g ; C % : > > > > o 6 + e 3 6 Z A @ ",
"= r 6 + + e e = > m b 0 % ; ; > - o o o o o & - ; : o n . e * 0 # @ ; ; ; ; - o - - O O O * d f S : ; : o * : o O 6 + 6 3 e = > ",
"e 3 3 e 3 . 3 = ; z D t g g ; > - o o o & p % - % % : F 3 6 G G G G ; N % > > o > ; O O O O g M H : @ % - > r 6 . 3 e 3 . e * ; ",
"e e . . . 3 e * C b < B - > - o o o o o o > : % o O O 6 6 = G G G G - - ; - > > > = = O J K g ; S K + O = O O e 3 . . . 3 6 * % ",
"e 5 . e 6 6 O g $ N M S c o : = = = O 6 e + = w O e 3 O G G L L P P G G : * = + o O O 3 I & o > - M ; * 6 . 3 e 5 3 I 6 6 = t $ ",
"6 e w - > U % 0 ; ; M H Y O = o O + e 3 e 6 O 6 6 . T R G G L L P P G G * * w 3 w E 5 3 O - - > - - - > + 3 6 6 e * - > - @ 0 ; ",
"> o * o r Y S @ - % * * - : = = O = + 6 6 6 F = w = G G L L L L P P W W G G +   + Q 5 O & & ! O o o o > - : o > o * o r f l % - ",
"r o * = V % D c - : * : ; : > O + * > & - ; % o q y G G L L L L P P W W G G e 4 . e o * : % @ = & w > * * > o r * * = o @ y % - ",
"+ 6 T ~ M d v g = + w * = = - > o = : ; - p % > % A G G L L ^ ^ ^ ^ / / G G > * + O = > & o O o ; > > = O = o + 6 T R g 0 l @ r ",
": = 6 Y d M N * ( - - > : ; o = w % % p ; ; % : % B G G L L ^ ^ ^ ^ / / G G o O > + 2 = & * 6 O O O O e 6 = > > = 6 % 0 M f = 6 ",
"= O 6 * N % - : - c R K ; M * * - @ p & > > > ; G G L L ) ) ^ ^ ^ ^ _ _ W W G G = o - : & : = 6 6 + + 6 + O + = + 6 : N C - : - ",
"= + = > 7 ` - g % * 6 + = * ; ; > % ; - - & & & G G L L ) ) ^ ^ ^ ^ _ _ W W G G * ; ' % % M ; = & = * * = = = = ] K : % % ; @ % ",
"+ o ; ; : : ; @ - : * * > * ; % > ; - - : & q o G G L L ) ) ^ ^ ) ) _ _ / / G G @ t [ - & ; ; o o r = * K = = + * f ; : : p @ - ",
"3 * > * o > ; c : 7 * * : { ; @ % ; - ; ; - ; > G G L L ) ) ^ ^ ) ) _ _ / / G G l ; * o o * * = = o & ; : = w 6 * > o o > ; % : ",
"e + = = * - : - ; > = ; % ; M d } - & q q : G G L L | | | | ) ) ) ) _ _ _ _ W W G G * o o > > = = O w : * O O 6 O w = > - : - ; ",
"6 O > w = * = ; % * = : q & - { - > o o = = G G L L | | | | ) ) ) ) _ _ _ _ W W G G o r r w * = + e O = = = = + O : = = w = ; % ",
"o = : O + = r : M : & o o > * & - * o = = = G G L L | | | | ^ ^ ^ ^ ) ) _ _ / / G G O 6 6 + + + e 6 6 + X O * o = : + + r = - H ",
"o o : + n = & o M : & * : : o o > O o o o o G G L L | | | | ^ ^ ^ ^ ) ) _ _ / / G G 6 e e 3 3 e e + 3 e + 2 > o = - 6 6 = * ! M ",
"o o * O + = : * % & o > : & o > & o & > o * G G  . .L L L L ^ ^ ^ ^ P P P P L L G G O O + 6 e n + ] O O K : o o o > + + o : : % ",
"> = = : % % : ; c ; : : & o o & > > - w O w G G  . .L L L L ^ ^ ^ ^ P P P P L L G G ; * 2 = O 2 [ ..R + J R o > = = : % Z : ; c ",
"- w O C $ g ; ; % g c f : o & > - & : 2 G G G G  . .L L L L L L P P P P L L L L G G G G ; - p { X.l = e 6 = w - = O N $ M ; ; % ",
": O + R g N N % y H g % : q p > - o o = G G G G  . .L L L L L L P P P P L L L L G G G G p ; 7 % , g * = = = & & + + f M N % % y ",
"O 6 O R % % g 0 9 d % ; ; q % - - * G G  . .G G G G  . .L L o.o.P P P P o.o.G G G G L L G G & : B 0 q o o & * X 6 2 ; f % g y 9 ",
"e O Y C f N c y y g ; ; : o & - % & G G  . .G G G G  . .L L o.o.P P P P o.o.G G G G L L G G > r & % - > > * + 6 O ; ; % N @ y y ",
"* O.g H 0 g q ; % N N % q * o % G G L L  . .G G G G  . .L L o.o.P P P P o.o.G G G G L L P P G G o o > > o = O * t g H 0 M q ; % ",
"D +.8 $ y t > & % ; C 7 ; : ; H G G L L  . .G G G G  . .L L o.o.P P P P o.o.G G G G L L P P G G = o * o * ; t D @.v $ y @ > : c ",
"#.$.l @ % ; > % @ * o & - p G G L L L L  . .G G G G  . .L L L L %.%.%.%.o.o.G G G G L L P P P P G G = w : d +.h +.y % % ; : % @ ",
"@.l g % ; - * p ; = = o & % G G L L L L  . .G G G G  . .L L L L %.%.%.%.o.o.G G G G L L P P P P G G o > M a h $.0 M C ; : * p ; ",
"t ; ; : : : * * w + e O G G L L L L L L  . .G G G G  . .&.&.L L P P %.%.L L G G G G L L P P P P P P G G D h b t - ; : : > * * w ",
"- > > & * = o o > e . ( G G L L L L L L  . .G G G G  . .&.&.L L P P %.%.L L G G G G L L P P P P P P G G z 9 t - * > & * w o o > ",
"> o o * * * > : > E G G &.&.L L | | L L  . .G G G G  . .&.&.W W P P %.%.L L G G G G L L o.o.P P P P P P G G % > o o * * * > : > ",
"] + r o * > : * 6 . G G &.&.L L | | L L  . .G G G G  . .&.&.W W P P %.%.L L G G G G L L o.o.P P P P P P G G ; + + = o o > > = I ",
"e 6 r w 2 O = e G G &.&.&.&.L L | | L L  . .G G G G *.*.&.&.W W P P P P o.o.G G G G &.&.o.o.P P P P P P P P G G 6 r w O 2 O 3 5 ",
"O + r o X =.k . G G &.&.&.&.L L | | L L  . .G G G G *.*.&.&.W W P P P P o.o.G G G G &.&.o.o.P P P P P P P P G G + o o + 3 k . 5 ",
"= ; & O e 3 G G o.o.&.&.| | L L | | L L  . .G G G G *.*.o.o.%.%.P P P P L L G G G G &.&.W W o.o.P P P P P P P P G G O e -.] + 3 ",
"; ; ; o ] 6 G G o.o.&.&.| | L L | | L L  . .G G G G *.*.o.o.%.%.P P P P L L G G G G &.&.W W o.o.P P P P P P P P G G o 6 ] r e e ",
"a # @ = G G &.&.o.o.o.o.| | L L L L L L  . .G G G G o.o.%.%.W W P P P P L L G G G G &.&.W W o.o.P P o.o.P P P P P P G G e + w r ",
"a B = 6 G G &.&.o.o.o.o.| | L L L L L L  . .G G G G o.o.%.%.W W P P P P L L G G G G &.&.W W o.o.P P o.o.P P P P P P G G 6 ( - > ",
"c = G G  . .o.o.*.*.o.o.L L L L L L  . . . .G G G G o.o.&.&.L L P P P P L L G G G G &.&.&.&.W W o.o.o.o.P P P P P P L L G G ! ;.",
"; 6 G G  . .o.o.*.*.o.o.L L L L L L  . . . .G G G G o.o.&.&.L L P P P P L L G G G G &.&.&.&.W W o.o.o.o.P P P P P P L L G G ; +.",
"6 4 G G  . .o.o.*.*.L L o.o. . . . .G G G G G G G G G G &.&.L L P P P P G G G G G G G G G G &.&.o.o.W W W W P P P P L L G G p , ",
"O X G G  . .o.o.*.*.L L o.o. . . . .G G G G G G G G G G &.&.L L P P P P G G G G G G G G G G &.&.o.o.W W W W P P P P L L G G % 8 ",
"6 O G G o.o.L L L L  . . . .G G G G : = = - : o % ;.G G &.&.L L P P P P G G + = . :.5 e e 3 G G G G &.&.&.&.P P P P P P G G q a ",
"5 e G G o.o.L L L L  . . . .G G G G ; : > : ; { a 9 G G &.&.L L P P P P G G = = . >.4 . 6 - G G G G &.&.&.&.P P P P P P G G M 9 ",
"6 = G G L L  . . . .G G G G = o = o ,.* w O ; <.1.y G G L L L L P P / / G G w 3     . ] * % @ c c H G G G G L L L L P P G G ; % ",
"o & G G L L  . . . .G G G G > > o o o % ` - ` @.2.t G G L L L L P P / / G G % > e O r : ; - ; ; l g G G G G L L L L P P G G o > ",
"; O G G  . .G G G G 0 0 ; > p d - - q % @ % c b 3.@ G G L L L L P P / / G G v d > - * * > > - ; ; - : - > * G G G G L L G G y # ",
"o + G G  . .G G G G A A M % ; ; > o & ; N N - g b 7 G G L L L L P P / / G G v ; o = o o o : @ ; ; ' : > > > G G G G L L G G # @ ",
"o = G G G G e * > v b 0 % ; ; > - o o o o o o - ; > G G L L L L / / W W G G - o - - O O O * H ; S 4.: & o * q o = 6 G G G G * > ",
"e 3 G G G G 3 = ; z D @ t t ; > - o o o & % ' - @ % G G L L L L / / W W G G > o > p O O O O g M H - t @ - & = 6 . e G G G G * ; ",
"e e 3 . . . e = ; z $.t - > - o o o o o > - - @ o O G G L L G G G G W W G G > - > = = = O K H ; 8 ,.6 O o = O e e . . . . 6 * ; ",
"e 5 5 3 e e O @ S c ;.S M & : = = = = + e + = > = 6 G G L L G G G G W W G G = + o = = 3 I & o > - H ; w 6 . 3 e   . 3 e e = g S ",
"e 3 w - : > p l ; ; d $ Y + = o O 6 e 3 3 6 O 6 e . G G G G @ C { { G G G G * 3 * 3 5 . i - - - - - - > ] . e e 3 * - > U % 0 ; ",
"> o o o = : S @ - ' * * - > = = O = 6 e e e 5.= = O G G G G S @ H $ G G G G +   + 6.  i & o o 7.o o = > - : o > o o o r C l ' - ",
"o > : = r ; y % - - * : ; : * + 6 > > & - ; % o - $ 8 $ $ A l H H ; * w i e 3 :.. 3 o * : @ g = o = > * * & o o : : = = % y % - ",
"6 6 3 K M d A 0 o 6 w * O = ; - o O : ; - p % > @ A A @ - : ; ; - 6 e n + = > > 6 r o > & o = o 8.> > * = = = 6 e 3 9.M B v g o ",
"- = 6 ; $ H ;.* 6 > - * & - o = = % % % % f c > ; y ' q - - % ; ; O 3 ] O + o = - ( O = : * 6 = = = O 6 6 w : - = 6 c $ H N = 6 ",
"= O 6 * c C q & > M c * f d = w - @ p & o o > ; 0 p > : % % ; - @ c = = > > * e = o - & * * = e e 6 6 e + O + = O 6 R N C : & > ",
"o 6 O * 7 @ - g @ & n 6 0.* - ; > % p - - & > - - - > : ; - > ; f ; > o o r + O = : % % N M ; = - = > > = = = = 6 = > ` ` ; g @ ",
"O o Z f ; - ; @ - w o & > * ; @ > ; - - & & q o ; * : : > & & @ $ u O = O O * ; ; l t ; : % % o o O = = = O = O o f f - - p ' - "
};
