/* XPM */
static char *d282823a0c9043288a09d64e5ce3927bKOZglTT03qEDoaSh[] = {
/* columns rows colors chars-per-pixel */
"64 64 105 2 ",
"   c #A2A09F",
".  c #A09E9D",
"X  c #9B9999",
"o  c #999797",
"O  c #9B9998",
"+  c #9C9A99",
"@  c #959392",
"#  c #918E8D",
"$  c #94918F",
"%  c #969493",
"&  c #989696",
"*  c #999796",
"=  c #9A9897",
"-  c #979695",
";  c #979594",
":  c #989695",
">  c #989796",
",  c #8F8D8C",
"<  c #908D8C",
"1  c #949392",
"2  c #9A9998",
"3  c #9F9D9C",
"4  c #A1A09F",
"5  c #A19F9E",
"6  c #9D9B9A",
"7  c #969593",
"8  c #928F8D",
"9  c #918E8C",
"0  c #949190",
"q  c #979595",
"w  c #999897",
"e  c #9E9C9B",
"r  c #9A9898",
"t  c #949291",
"y  c #93918F",
"u  c #9A9896",
"i  c #9B9A99",
"p  c #969594",
"a  c #908E8C",
"s  c #8B8887",
"d  c #949290",
"f  c #979493",
"g  c #959291",
"h  c black",
"j  c #D5E04B",
"k  c #93908F",
"l  c #908E8D",
"z  c #939290",
"x  c #92908E",
"c  c #9D9B9B",
"v  c #918F8E",
"b  c #959391",
"n  c #979494",
"m  c #928F8E",
"M  c #918F8D",
"N  c #92908F",
"B  c #979593",
"V  c #939190",
"C  c #969492",
"Z  c #93908E",
"A  c #969392",
"S  c #9D9C9B",
"D  c #989795",
"F  c #959290",
"G  c #989694",
"H  c #7F708A",
"J  c #9BABB2",
"K  c #C7DCD0",
"L  c #9A9797",
"P  c #9F9C9B",
"I  c #9A9795",
"U  c #989594",
"Y  c #9C9B9A",
"T  c #9A9796",
"R  c #959492",
"E  c #9C9A9A",
"W  c #4D65B4",
"Q  c #484A77",
"!  c #999696",
"~  c #323353",
"^  c #3E3546",
"/  c #B33831",
"(  c #959292",
")  c #6E2727",
"_  c #8F8D8B",
"`  c #8E8C8B",
"'  c #8E8B8A",
"]  c #8F8C8B",
"[  c #8E8C8A",
"{  c #9E9D9C",
"}  c #A09F9E",
"|  c #9E9C9C",
" . c #2E222F",
".. c #969391",
"X. c #8F8E8C",
"o. c #8E8D8B",
"O. c #989595",
"+. c #969494",
"@. c #9B9997",
"#. c #959493",
"$. c #9E9C9A",
"%. c #A4A2A1",
"&. c #9C9A98",
"*. c #999694",
"=. c #9B9898",
/* pixels */
"  . X o o O + @ # $ % & o * = o o - ; : > : ; % , < # 1 2 3 3 O . O = = O + = = .   4 5 6 7 $ 8 8 9 0 q > - w 5 e r o = + O t # ",
"e w - * O + * ; ; y @ & o o = o = o O * u i p a s d - w = O e . 3 O + 6 6 O * . 5   . + & % @ f % g 7 > o O e 6 > ; * + + * ; ; ",
"o : - * = * : o > ; d % > > > > o h h j j j j h h h h j j j j j j j j j j j j h h j j j j h h ; k g % & o = o o - - * = & : * > ",
"; O * O e e = y l f 0 0 ; & p z - h h j j j j h h h h j j j j j j j j j j j j h h j j j j h h ; ; - > & > * ; ; + > i e e * x < ",
"o + + e 3 c : # @ % v x b h h h h h h j j j j h h h h h h j j j j j j h h h h h h j j j j h h h h h h > > > > o 6 + e 3 6 n m @ ",
"= r 6 + + e e = > v M 0 % h h h h h h j j j j h h h h h h j j j j j j h h h h h h j j j j h h h h h h : o * : o O 6 + 6 3 e = > ",
"e 3 3 e 3 . 3 = ; l N t g h h h h h h j j j j h h h h h h j j j j j j h h h h h h j j j j h h h h h h % - > r 6 . 3 e 3 . e * ; ",
"e e . . . 3 e * B M < V - h h h h h h j j j j h h h h h h j j j j j j h h h h h h j j j j h h h h h h O = O O e 3 . . . 3 6 * % ",
"e 5 . e 6 6 O g $ C b Z A h h h h h h h h h h h h h h h h h h h h h h h h h h h h h h h h h h h h h h * 6 . 3 e 5 3 S 6 6 = t $ ",
"6 e w - > D % 0 ; ; b F G h h h h h h h h h h h h h h h h h h h h h h h h h h h h h h h h h h h h h h > + 3 6 6 e * - > - @ 0 ; ",
"> o * o r G Z @ - % * * - h h h h H H J J J J h h h h H H H H H H K K J J J J h h K K K K H H h h h h > - : o > o * o r f k % - ",
"r o * = L % N A - : * : ; h h h h H H J J J J h h h h H H H H H H K K J J J J h h K K K K H H h h h h * * > o r * * = o @ y % - ",
"+ 6 P I b d x g = + w * = h h h h H H J J J J h h h h H H H H H H K K J J J J h h K K K K H H h h h h = O = o + 6 P U g 0 k @ r ",
": = 6 G d b C * Y - - > : h h h h H H J J J J h h h h H H H H H H K K J J J J h h K K K K H H h h h h e 6 = > > = 6 % 0 b f = 6 ",
"= O 6 * C % - : - A U T ; h h h h H H J J J J h h h h H H H H H H K K J J J J h h K K K K H H h h h h 6 + O + = + 6 : C B - : - ",
"= + = > 7 R - g % * 6 + = h h h h H H J J J J h h h h H H H H H H K K J J J J h h K K K K H H h h h h * = = = = E T : % % ; @ % ",
"+ o ; ; : : ; @ - : * h h W W W W W W W W W W j j j j H H H H H H K K J J J J j j K K K K H H h h h h * T = = + * f ; : : p @ - ",
"3 * > * o > ; A : 7 * h h W W W W W W W W W W j j j j H H H H H H K K J J J J j j K K K K H H h h h h ; : = w 6 * > o o > ; % : ",
"e + = = * - : - ; > = h h W W W W W W W W W W j j j j H H H H H H K K J J J J j j K K K K H H h h h h : * O O 6 O w = > - : - ; ",
"6 O > w = * = ; % * = h h W W W W W W W W W W j j j j H H H H H H K K J J J J j j K K K K H H h h h h = = = = + O : = = w = ; % ",
"o = : O + = r h h h h Q Q h h h h H H J J J J j j j j H H H H H H K K J J J J j j K K K K H H h h h h h h O * o = : + + r = - F ",
"o o : + c = & h h h h Q Q h h h h H H J J J J j j j j H H H H H H K K J J J J j j K K K K H H h h h h h h 2 > o = - 6 6 = * ! b ",
"o o * O + h h ~ ~ ~ ~ h h & o > & h h J J J J ^ ^ ^ ^ H H H H H H K K J J J J ^ ^ K K K K h h h h h h / / h h o o > + + o : : % ",
"> = = : % h h ~ ~ ~ ~ h h o o & > h h J J J J ^ ^ ^ ^ H H H H H H K K J J J J ^ ^ K K K K h h h h h h / / h h > = = : % n : ; A ",
"- w O B $ h h ~ ~ ~ ~ h h o & > - h h J J J J ^ ^ ^ ^ H H H H H H K K J J J J ^ ^ K K K K h h h h h h / / h h - = O C $ b ; ; % ",
": O + U g h h ~ ~ ~ ~ h h q p > - h h J J J J ^ ^ ^ ^ H H H H H H K K J J J J ^ ^ K K K K h h h h h h / / h h & + + f b C % % y ",
"O 6 O U % h h ~ ~ ~ ~ h h q % - - h h J J J J j j j j H H H H H H K K J J J J j j K K K K h h h h h h / / h h X 6 2 ; f % g y 9 ",
"e O G B f h h ~ ~ ~ ~ h h o & - % h h J J J J j j j j H H H H H H K K J J J J j j K K K K h h h h h h / / h h 6 O ; ; % C @ y y ",
"* ( g F 0 h h ~ ~ ~ ~ h h * o % @ h h J J J J j j j j H H H H H H K K J J J J j j K K K K h h h h h h ) ) h h * t g F 0 b q ; % ",
"N _ 8 $ y h h ~ ~ ~ ~ h h : ; F C h h J J J J j j j j H H H H H H K K J J J J j j K K K K h h h h h h ) ) h h N ` x $ y @ > : A ",
"' ] k @ % h h ~ ~ ~ ~ h h p 0 F ; h h J J J J j j j j H H H H H H K K J J J J j j K K K K h h h h h h ) ) h h [ _ y % % ; : % @ ",
"` k g % ; h h ~ ~ ~ ~ h h % k @ = h h J J J J j j j j H H H H H H K K J J J J j j K K K K h h h h h h ) ) h h ] 0 b B ; : * p ; ",
"t ; ; : : : * h h h h ~ ~ h h h h h h J J J J ^ ^ ^ ^ H H H H H H K K J J J J ^ ^ K K K K h h h h h h ) ) h h t - ; : : > * * w ",
"- > > & * = o h h h h ~ ~ h h h h h h J J J J ^ ^ ^ ^ H H H H H H K K J J J J ^ ^ K K K K h h h h h h ) ) h h - * > & * w o o > ",
"> o o * * * > h h h h Q Q h h h h H H J J J J j j j j H H H H H H K K J J J J j j K K K K H H h h h h h h ) ) h h h h * * > : > ",
"E + r o * > : h h h h Q Q h h h h H H J J J J j j j j H H H H H H K K J J J J j j K K K K H H h h h h h h ) ) h h h h o > > = S ",
"e 6 r w 2 O = h h h h Q Q h h h h H H J J J J j j j j H H H H H H K K J J J J j j K K K K H H h h h h h h ) ) h h h h O 2 O 3 5 ",
"O + r o X { } h h h h Q Q h h h h H H J J J J j j j j H H H H H H K K J J J J j j K K K K H H h h h h h h ) ) h h h h + 3 } . 5 ",
"= ; & O e 3 E h h h h W W h h h h H H J J J J j j j j H H h h h h h h J J J J j j K K K K H H h h h h h h ) ) h h h h e | E + 3 ",
"; ; ; o E 6 r h h h h W W h h h h H H J J J J j j j j H H h h h h h h J J J J j j K K K K H H h h h h h h ) ) h h h h 6 E r e e ",
"a # @ = 6 e 6 w r g $ h h W W W W H H J J J J ^ ^ ^ ^ h h  . . . . . .h h h h ^ ^ K K K K H H h h h h h h / / h h h h 6 e + w r ",
"a V = 6 6 + S - > v Z h h W W W W H H J J J J ^ ^ ^ ^ h h  . . . . . .h h h h ^ ^ K K K K H H h h h h h h / / h h h h + 6 Y - > ",
"A = e . 3 6 6 * A # k h h W W W W H H J J J J ^ ^ ^ ^ h h  . . . . . .h h h h ^ ^ K K K K H H h h h h h h / / h h h h 3 e 6 ! ..",
"; 6 .   3 = > & X.l X.h h W W W W H H J J J J ^ ^ ^ ^ h h  . . . . . .h h h h ^ ^ K K K K H H h h h h h h / / h h h h e w > ; _ ",
"6 4 5 c r = 2 - < o.` V - h h h h H H J J J J h h h h  . . . . . . . . . . . .h h K K K K H H h h h h / / h h 6 4 5 E r r 2 p , ",
"O X r > = + = ; 8 < < t & h h h h H H J J J J h h h h  . . . . . . . . . . . .h h K K K K H H h h h h / / h h O X = > 2 + = % 8 ",
"6 O * > 2 6 + & M < d : o h h h h H H J J J J h h h h  . . . . . . . . . . . .h h K K K K H H h h h h h h $ 0 + = > > O 6 X q a ",
"5 e r o = O + @ 9 $ C & o h h h h H H J J J J h h h h  . . . . . . . . . . . .h h K K K K H H h h h h h h p : 3 e r o = + O b 9 ",
"6 = : * O + = ; % y C & o h h h h H H J J J J h h h h  . . . . . . . . . . . .h h K K K K H H h h h h h h r 6 6 w : * O + * ; % ",
"o & - * = * : o > ; d f o h h h h H H J J J J h h h h  . . . . . . . . . . . .h h K K K K H H h h h h h h = o o - - * = & : o > ",
"; O > 2 e e = y # f 0 0 ; h h h h H H J J J J J J J J h h  . . . . . .h h h h K K J J J J H H h h h h - > * ; q O > O e 6 * y # ",
"o + O e 3 6 O.l t ; m m b h h h h H H J J J J J J J J h h  . . . . . .h h h h K K J J J J H H h h h h > > > > o 6 O e 3 E +.# @ ",
"o = 6 + + e e * > x M 0 % ; ; > - h h J J J J J J J J J J h h h h h h K K K K J J J J J J h h ; Z O.: & o * q o = 6 O + e 6 * > ",
"e 3 3 e 3 . 3 = ; l N @ t t ; > - h h J J J J J J J J J J h h h h h h K K K K J J J J J J h h b F - t @ - & = 6 . e e 3 . e * ; ",
"e e 3 . . . e = ; l ] t - > - o o h h J J J J J J J J J J h h h h h h K K K K J J J J J J h h ; 8 @.6 O o = O e e . . . . 6 * ; ",
"e 5 5 3 e e O @ Z A ..Z b & : = = h h J J J J J J J J J J h h h h h h K K K K J J J J J J h h > - F ; w 6 . 3 e   . 3 e e = g Z ",
"e 3 w - : > p k ; ; d $ G + = o O 6 e h h h h J J J J J J J J J J J J J J J J J J h h h h - - - - - - > E . e e 3 * - > D % 0 ; ",
"> o o o = : Z @ - #.* * - > = = O = 6 e e e $.h h h h h h h h h h h h h h h h h h %.  i & o o &.o o = > - : o > o o o r B k #.- ",
"o > : = r ; y % - - * : ; : * + 6 > > & - ; % h h h h h h h h h h h h h h h h h h 3 o * : @ g = o = > * * & o o : : = = % y % - ",
"6 6 3 T b d m 0 o 6 w * O = ; - o O : ; - p % h h h h h h h h h h h h h h h h h h r o > & o = o +.> > * = = = 6 e 3 *.b V x g o ",
"- = 6 ; $ F ..* 6 > - * & - o = = % % % % f A h h h h h h h h h h h h h h h h h h Y O = : * 6 = = = O 6 6 w : - = 6 A $ F C = 6 ",
"= O 6 * A B q & > b A * f d = w - @ p & o o > ; 0 p > : % % ; - @ A = = > > * e = o - & * * = e e 6 6 e + O + = O 6 U C B : & > ",
"o 6 O * 7 @ - g @ & c 6 =.* - ; > % p - - & > - - - > : ; - > ; f ; > o o r + O = : % % C b ; = - = > > = = = = 6 = > R R ; g @ ",
"O o n f ; - ; @ - w o & > * ; @ > ; - - & & q o ; * : : > & & @ $ u O = O O * ; ; k t ; : % % o o O = = = O = O o f f - - p #.- "
};
