/* XPM */
static char *c6c6d9574f954a46a20373be1cd53752Eje9Y58tm1rBUKPG[] = {
/* columns rows colors chars-per-pixel */
"64 61 155 2 ",
"   c #121212",
".  c #1B1B1B",
"X  c #242424",
"o  c #2C2C2C",
"O  c #333333",
"+  c #3C3C3C",
"@  c #403F3F",
"#  c #40403F",
"$  c #444444",
"%  c #484747",
"&  c #484847",
"*  c #4B4B4B",
"=  c #535352",
"-  c #595857",
";  c #5C5B5B",
":  c #605F5F",
">  c #60605F",
",  c #636362",
"<  c #686767",
"1  c #696867",
"2  c #6D6C6B",
"3  c #706F6F",
"4  c #71706F",
"5  c #747372",
"6  c #787777",
"7  c #787877",
"8  c #7C7B7A",
"9  c #807F7E",
"0  c #81807F",
"q  c #838281",
"w  c #848382",
"e  c #848483",
"r  c #858483",
"t  c #868584",
"y  c #878685",
"u  c #858483",
"i  c #888785",
"p  c #898787",
"a  c #888786",
"s  c #898886",
"d  c #898887",
"f  c #8A8887",
"g  c #8A8987",
"h  c #898887",
"j  c #898988",
"k  c #8A8988",
"l  c #8B8989",
"z  c #8B8A88",
"x  c #8B8A89",
"c  c #8B8B89",
"v  c #8C8A89",
"b  c #8C8B89",
"n  c #8C8A8A",
"m  c #8C8B8A",
"M  c #8D8C8B",
"N  c #8D8D8B",
"B  c #8E8D8C",
"V  c #8F8D8C",
"C  c #8F8E8D",
"Z  c #8F8F8D",
"A  c #8D8C8A",
"S  c #908D8C",
"D  c #908E8D",
"F  c #918E8D",
"G  c #918F8D",
"H  c #908E8E",
"J  c #908F8E",
"K  c #918F8E",
"L  c #928F8E",
"P  c #918E8D",
"I  c #91908F",
"U  c #91918F",
"Y  c #92908E",
"T  c #92908F",
"R  c #93908F",
"E  c #92918F",
"W  c #93918F",
"Q  c #94918F",
"!  c #93908F",
"~  c #929190",
"^  c #939190",
"/  c #939290",
"(  c #939291",
")  c #949190",
"_  c #949191",
"`  c #949290",
"'  c #949291",
"]  c #959291",
"[  c #949391",
"{  c #959391",
"}  c #969391",
"|  c #959292",
" . c #949392",
".. c #959392",
"X. c #959393",
"o. c #969392",
"O. c #959492",
"+. c #959493",
"@. c #969492",
"#. c #969493",
"$. c #979493",
"%. c #969593",
"&. c #979593",
"*. c #969494",
"=. c #969594",
"-. c #979594",
";. c #979595",
":. c #969694",
">. c #979694",
",. c #979695",
"<. c #969493",
"1. c #989594",
"2. c #989595",
"3. c #989694",
"4. c #989695",
"5. c #999695",
"6. c #989795",
"7. c #999795",
"8. c #989696",
"9. c #999696",
"0. c #989796",
"q. c #999796",
"w. c #999797",
"e. c #989796",
"r. c #999896",
"t. c #999897",
"y. c #9A9896",
"u. c #9A9897",
"i. c #9B9897",
"p. c #9A9997",
"a. c #9A9897",
"s. c #9A9898",
"d. c #9A9998",
"f. c #9B9998",
"g. c #9B9999",
"h. c #9B9A99",
"j. c #9C9998",
"k. c #9C9A98",
"l. c #9C9A99",
"z. c #9D9A99",
"x. c #9C9B99",
"c. c #9C9A9A",
"v. c #9C9B9A",
"b. c #9D9B9A",
"n. c #9D9B9B",
"m. c #9D9C9B",
"M. c #9E9C9B",
"N. c #9E9C9C",
"B. c #9F9D9C",
"V. c #9C9A99",
"C. c #A09E9D",
"Z. c #A19F9E",
"A. c #A09E9D",
"S. c #A2A09F",
"D. c #A3A1A0",
/* pixels */
"0.0.f.0.=.@.' 0.0.=.0.@.' L ' 0.M.Z.0.=.0.@.' f.u.=.=.@.@.0.0.0.0.u.u.=.=.' =.=.0.0.' =.R C =.f.Z.b.0.=.@.@.0.0.0.=.@.' 0.u.0.u.",
"u.f.M.u.R ' L @.=.=.0.@.@.( @.b.Z.b.' R ' R ' 0.0.0.=.=.=.0.0.0.f.b.b.' ' R ' =.=.0.=.@.' R 0.B.Z.0.' R ' ' 0.0.0.@.@.@.0.0.0.0.",
"f.b.b.M.=.R R @.=.0.0.0.0.=.0.b.M.@.' =.@.=.0.=.0.0.@.@.=.=.0.f.b.b.M.f.' ( ' =.=.0.0.0.=.=.0.M.b.' ' =.=.0.0.u.b.@.' @.@.0.0.f.",
"M.B.B.M.=.L R =.0.0.u.0.0.0.0.b.f.' ' =.=.0.=.( x 0.@.@.0.0.f.b.B.B.B.f.' R @.0.0.0.f.0.=.0.u.b.0.' @.=.0.0.0.f.b.@.' 0.0.u.u.f.",
"M.M.f.u.' ' ' @.u.u.b.M.b.f.b.u.' ' @.@.=.0.R 8 7 u.0.=.=.f.M.M.M.b.f.@.' ' =.0.u.f.b.b.u.f.b.0.' @.@.@.0.f.b.b.f.0.0.@.0.b.b.0.",
"f.0.0.' @.=.0.0.u.u.b.b.b.u.0.@.' ' ' @.u.0.8 = 5 0.0.0.0.0.u.u.0.0.@.' @.0.0.u.f.f.b.b.f.u.0.' ' ' @.0.f.b.Z.M.f.0.0.0.0.u.f.u.",
"f.f.=.' =.0.0.0.0.u.0.=.=.=.' ' ' ' =.f.u.( ; + < L R ' L ( @.L y w m R @.L m x m L =.=.0.=.R ' ' @.0.f.f.b.M.f.0.0.0.0.u.u.0.f.",
"u.b.' ' 0.0.0.0.0.0.=.=.=.0.@.@.=.=.0.f.N 5 % + = 2 5 5 4 7 9 5 - = 2 8 8 2 , ; ; 5 ' =.=.@.' =.=.=.u.b.f.f.f.u.0.f.f.u.b.f.u.b.",
"u.f.' @.=.0.0.0.0.=.=.=.R q 8 x ( ' L e , = + + + * & * * - = * $ % * = = % % * % , R 0.=.@.=.' C C ' 0.u.f.u.0.=.0.f.f.f.f.u.0.",
"f.0.0.=.@.0.f.0.0.=.=.0.x ; * 2 q q 4 - $ % $ O O + + $ $ % + O + $ + + $ + + $ + = 0 u.u.0.@.i 2 5 x ( 0.0.@.=.=.=.0.u.0.0.0.@.",
"b.0.0.0.=.0.0.=.@.@.=.=.q * + * ; - % + + $ + O o o O % % + O O O O O + % + + $ $ $ = 7 x m 8 ; % ; 7 f ( ( ' 0.0.0.0.u.0.0.u.0.",
"b.u.f.0.=.0.0.=.=.=.0.( 3 * + + + + O O O O o o o o o + + O o o o o O O + + + + $ + O * - - * + + * - , 6 m @.0.f.0.u.b.u.u.0.0.",
"u.0.b.0.0.0.0.0.0.0.0.C < * O O o o o o O X X . X o X X X o o X X X o o o o o o o o O O O O o o + % * * 2 m ( u.b.b.b.b.b.f.0.0.",
"0.0.b.0.=.0.0.0.0.0.=.x : $ O o X X X X o .     . . . . . . X . . X X . . . . X . X o o X X X o + % % = 5 i x @.b.M.b.b.f.u.0.f.",
"0.u.' @.=.@.=.0.0.0.' 9 * O X . .       .                                             . . . . X o O O $ = 5 w C =.0.=.' f.f.0.0.",
"u.f.' @.' ' @.0.=.=.f , + X .                                                                 . X o O o + 2 x L @.=.' ' u.f.=.' ",
"b.0.@.' Q ' =.=.L 5 * + O X .                                                                   . X o o o * 7 m ' =.0.' 0.0.0.' ",
"=.' ' @.=.@.@.=.e = O O O X .                                                                   . . X X O $ = 2 f @.0.0.0.0.u.0.",
"L R ' =.@.=.0.=.8 * O o o X .                                                                     . . X O % % $ = 5 C =.u.=.' M.",
"L ' =.0.=.0.@.( 3 + O O o X                                                                         . X o + $ + ; f @.0.0.' R b.",
"=.0.0.0.0.x , ; % O O O o . .                                                                       . . X O O + , C 0.0.=.L ' 0.",
"0.0.0.0.0.y - * % * + o X .                                                                         . X O + + + * 8 R =.@.L @.u.",
"M.f.u.f.f.e = * % % O X .                                                                             X O * = % O % 5 R 0.@.0.f.",
"b.f.f.b.=.8 * + + $ o . .                                                                             . O % * % + + - f 0.u.f.u.",
"0.0.b.f.N 7 % O O O X .                                                                               . X O + $ % , q ' =.=.0.0.",
"R =.b.f.' q < * O o .                                                                                   . o * , 5 x u.f.' ( ' 0.",
"' f.M.b.@.N q 2 + X .                                                                                   . o 1 i x u.Z.0.R L R u.",
"f.Z.M.u.' L x 4 + .                                                                                     . O 1 L =.Z.b.' R ' @.B.",
"b.M.f.u.' C m 4 O                                                                                         o = y u.M.@.' R =.u.B.",
"b.0.u.f.' R ( 8 @                                                                                         X - m u.u.' ' ' 0.0.f.",
"b.0.f.f.' ' @.q $                                                                                         X - N 0.@.' ' @.0.0.u.",
"u.0.f.u.@.' L 5 O                                                                                       . o = 8 ( ' @.' 0.0.0.u.",
"u.f.b.f.' m 5 = O .                                                                                       o % , x 0.=.@.0.0.0.u.",
"b.b.M.b.m 2 = % O .                                                                                       X + * 3 @.0.@.@.0.0.u.",
"M.B.B.u.5 * % % O .                                                                                       . o + = y @.@.0.f.f.u.",
"B.b.f.=.8 = % $ O .                                                                                         . o + 4 R @.0.b.b.0.",
"u.0.u.=.C ; + + O X .                                                                                     . O O + 2 ( u.0.0.f.u.",
"f.b.=.' L 2 % $ O o X                                                                                     X $ * > f =.0.0.u.u.b.",
"u.b.' ' @.y , * O X X                                                                                     X $ = 5 R =.0.u.f.u.b.",
"f.b.@.=.=.@.f = o o o .                                                                                   X O = 0 =.f.b.b.f.u.u.",
"f.0.=.=.@.0.m - O O O X                                                                                 . o O = y @.0.u.0.u.0.' ",
"b.0.0.0.@.0.' 7 = * % o                                                                                 X + ; e =.0.u.0.=.0.u.0.",
"b.0.0.0.=.0.=.m 2 * * O X                                                                             X * 5 f ' 0.0.u.b.u.u.0.u.",
"0.0.b.u.=.=.0.=.i 5 , $ O X .                                                                     . X + 7 L x L f.b.b.M.b.f.0.=.",
"0.0.b.0.0.0.0.=.=.u.x : + X .                                                                   . o O * i R L 0.b.M.M.b.b.f.0.u.",
"0.u.' =.@.=.0.0.0.0.' 6 % o .                                                                   X O + ; i R =.0.0.u.0.@.u.u.0.0.",
"0.f.' @.@.' @.0.0.=.( 5 $ O o .                                                                 X O + = 7 C 0.0.=.=.' ( f.f.0.' ",
"b.u.@.' Q ' =.=.=.=.R 2 % $ + X .                                                             . X O $ - w @.0.0.=.0.0.' 0.0.0.' ",
"0.' ' @.' @.=.0.0.=.=.0 ; = * o o o . .           . . . .                               . X X X o O * 5 @.0.0.=.0.0.u.0.0.0.0.0.",
"L R ' =.=.0.=.=.@.=.0.x 8 5 ; $ $ + o . .         O + O o . .                         X * > - + o O , C f.0.=.=.0.0.u.u.0.0.@.M.",
"L ' =.0.=.u.u.=.' 0.0.' L f q , % $ + o o .   . + 1 4 , $ o o X . . . . . .           + 6 q q - O $ 5 u.f.0.=.0.0.0.u.u.0.' ( b.",
"=.0.0.0.u.b.b.0.=.0.0.=.' L N 5 ; ; ; = % O X # 5 ( =.y - O + O X X X X X o X . X . . % 7 y x 7 ; , y u.0.=.=.0.0.0.0.0.=.L R 0.",
"u.u.0.0.u.M.f.0.0.0.0.0.=.' ' i w i i q 6 2 - ; R =.0.R 2 $ + + o o O * ; * + + , ; * * , 7 ' R i q m @.@.@.0.0.u.0.0.0.=.R ' u.",
"b.f.u.u.b.M.0.f.b.u.=.0.=.' =.@.@.' R ' @.@.x 7 0.u.u.=.w , , , = + + 5 L 8 ; , i L e 7 2 7 =.=.' L L @.0.0.0.u.u.f.u.0.0.' 0.f.",
"b.f.f.M.B.M.0.u.0.' R ' ' @.=.=.@.' @.0.0.u.u.L 0.f.b.0.R y y N 9 - * q b.=.y w L R Q L m N @.=.' ' @.0.u.0.u.u.f.b.u.=.0.0.u.u.",
"0.0.b.b.b.b.=.( L ( ' ' ' ' @.=.' Q 0.b.M.f.u.0.0.u.f.u.0.( ( =.' 7 2 f b.0.R N R ' ' ' ' ' @.=.' ' f.b.b.u.0.0.0.f.f.0.0.0.0.0.",
"R @.b.b.u.@.R L L @.0.0.=.=.=.@.@.@.b.M.B.f.u.u.0.u.M.M.0.R R ( ' ( R =.0.' L L @.0.0.=.=.=.=.@.@.0.b.B.b.u.0.0.u.M.Z.b.' ' ' 0.",
"' f.M.b.=.R R L ' 0.u.u.0.0.=.' 0.u.u.f.f.0.f.f.u.b.S.M.' L L R 0.b.b.u.' R L @.0.u.u.u.0.=.@.' u.u.f.f.f.f.u.u.b.S.S.u.R L L u.",
"0.Z.B.u.' L L ' 0.f.f.u.0.0.=.' 0.0.0.f.0.u.f.u.f.M.Z.0.R R ' @.b.Z.b.0.R L ' 0.f.f.u.u.0.=.@.@.0.0.0.u.u.f.u.f.M.D.b.' R ' ' M.",
"M.B.u.u.' N L 0.f.f.u.0.0.0.0.=.0.0.0.0.0.f.f.b.b.Z.b.' ' ' u.b.M.f.f.=.L L =.f.u.u.0.0.0.0.0.=.0.0.0.0.u.f.f.b.Z.Z.@.' R 0.b.B.",
"f.0.u.b.' L ' 0.u.0.0.0.0.=.=.@.f.f.0.0.0.b.f.Z.Z.B.u.Q ' @.@.0.u.u.f.0.L ' 0.u.0.0.u.0.0.=.@.=.f.f.0.0.f.b.B.Z.Z.b.' ' ' @.=.b."
};
