/* XPM */
static char *b097a180011a4563aab1b7da129c50792qvoocQLMZrcHxJP[] = {
/* columns rows colors chars-per-pixel */
"64 64 139 2 ",
"   c #A2A09F",
".  c #A09E9D",
"X  c #9B9999",
"o  c #999797",
"O  c #9B9998",
"+  c #9C9A99",
"@  c #959392",
"#  c #918E8D",
"$  c #94918F",
"%  c #969493",
"&  c #989696",
"*  c #999796",
"=  c #9A9897",
"-  c #979695",
";  c #979594",
":  c #989695",
">  c #989796",
",  c #8F8D8C",
"<  c #908D8C",
"1  c #949392",
"2  c #9A9998",
"3  c #9F9D9C",
"4  c #A1A09F",
"5  c #A19F9E",
"6  c #9D9B9A",
"7  c #969593",
"8  c #928F8D",
"9  c #918E8C",
"0  c #949190",
"q  c #979595",
"w  c #999897",
"e  c #9E9C9B",
"r  c #9A9898",
"t  c #949291",
"y  c #93918F",
"u  c #9A9896",
"i  c #9B9A99",
"p  c #969594",
"a  c #908E8C",
"s  c #8B8887",
"d  c #949290",
"f  c #9BADB7",
"g  c #979493",
"h  c #959291",
"j  c #8E8C8A",
"k  c #8D8B89",
"l  c #93908F",
"z  c #908E8D",
"x  c #939290",
"c  c #969392",
"v  c #D1DBEF",
"b  c #92908E",
"n  c #9D9B9B",
"m  c #918F8E",
"M  c #959391",
"N  c #969492",
"B  c #9A9797",
"V  c #979593",
"C  c #979494",
"Z  c #928F8E",
"A  c #918F8D",
"S  c #92908F",
"D  c #939190",
"F  c #9A9796",
"G  c #93908E",
"H  c #9D9C9B",
"J  c #989795",
"K  c #959290",
"L  c #989694",
"P  c #253036",
"I  c #9F9C9B",
"U  c #9A9795",
"Y  c #989594",
"T  c #9C9B9A",
"R  c black",
"E  c #959492",
"W  c #9C9A9A",
"Q  c #B5CEDA",
"!  c #91C95B",
"~  c #999696",
"^  c #959393",
"/  c #969393",
"(  c #9C9998",
")  c #979694",
"_  c #908D8D",
"`  c #959292",
"'  c #8F8D8B",
"]  c #595652",
"[  c #8E8C8B",
"{  c #8E8B8A",
"}  c #8F8C8B",
"|  c #A85312",
" . c #D76900",
".. c #9F9E9D",
"X. c #959493",
"o. c #9E9D9C",
"O. c #A09F9E",
"+. c #928F8F",
"@. c #9B9898",
"#. c #9E9C9C",
"$. c #354249",
"%. c #908F8E",
"&. c #8F8E8C",
"*. c #A2A1A0",
"=. c #969391",
"-. c #8E8D8B",
";. c #9B9897",
":. c #A09D9C",
">. c #9B9A98",
",. c #9B9997",
"<. c #65686B",
"1. c #989595",
"2. c #342D2D",
"3. c #969494",
"4. c #585756",
"5. c #575555",
"6. c #5B5957",
"7. c #5E5C5C",
"8. c #5C5B5A",
"9. c #5C5B5B",
"0. c #5D5C5C",
"q. c #5F5E5E",
"w. c #605F5E",
"e. c #5C5B59",
"r. c #5B5959",
"t. c #9C9A98",
"y. c #5C5C5B",
"u. c #5B5958",
"i. c #5E5D5C",
"p. c #5B5B5A",
"a. c #5B5A59",
"s. c #595756",
"d. c #5F5E5D",
"f. c #999694",
"g. c #5C5A59",
"h. c #595857",
"j. c #615F5F",
"k. c #5D5C5B",
"l. c #5A5857",
/* pixels */
"  . X o o O + @ # $ % & o * = o o - ; : > : ; % , < # 1 2 3 3 O . O = = O + = = .   4 5 6 7 $ 8 8 9 0 q > - w 5 e r o = + O t # ",
"e w - * O + * ; ; y @ & o o = o = o O * u i p a s d - f f f f f f f f f f O * . 5   . + & % @ g % h 7 > o O e 6 > ; * + + * ; ; ",
"o : - * = * : o > ; d % > > > > o o o % @ - @ j k t ; f f f f f f f f f f ; @ - 6 r = : ; - ; ; l h % & o = o o - - * = & : * > ",
"; O * O e e = y z g 0 0 ; & p x - - ; % @ c c f f f f v v v v f f v v v v f f f f - * * > > - ; ; - > & > * ; ; + > i e e * b < ",
"o + + e 3 n : # @ % m b M % ; ; > o & - % N : f f f f v v v v f f v v v v f f f f = o o B : h ; V % : > > > > o 6 + e 3 6 C Z @ ",
"= r 6 + + e e = > m A 0 % ; ; f f o o o o f f v v v v v v v v f f v v v v v v v v f f O O * d f f : ; : o * : o O 6 + 6 3 e = > ",
"e 3 3 e 3 . 3 = ; z S t h h ; f f o o o & f f v v v v v v v v f f v v v v v v v v f f O O O h f f : @ % - > r 6 . 3 e 3 . e * ; ",
"e e . . . 3 e * V A < D - > - f f o o f f v v v v v v v v v v v v v v v v v v v v v v f f F h f f F + O = O O e 3 . . . 3 6 * % ",
"e 5 . e 6 6 O h $ N M G c o : f f = O f f v v v v v v v v v v v v v v v v v v v v v v f f & o f f M ; * 6 . 3 e 5 3 H 6 6 = t $ ",
"6 e w - > J % 0 ; ; M K L O = f f f f v v v v v v v v v v f f f f f f v v v v v v v v v v f f f f - - > + 3 6 6 e * - > - @ 0 ; ",
"> o * o r L G @ - % * * - : = f f f f v v v v v v v v v v f f f f f f v v v v v v v v v v f f f f o o > - : o > o * o r g l % - ",
"r o * = B % S c - : * : ; : > f f f f v v v v v v P P P P P P P P P P P P P P v v v v v v f f f f w > * * > o r * * = o @ y % - ",
"+ 6 I U M d b h = + w * = = - f f f f v v v v v v P P P P P P P P P P P P P P v v v v v v f f f f > > = O = o + 6 I Y h 0 l @ r ",
": = 6 L d M N * T - - > : f f f f v v v v v v P P P P P P R R R R R R R R R R R R v v v v v v f f f f e 6 = > > = 6 % 0 M g = 6 ",
"= O 6 * N % - : - c Y F ; f f f f v v v v v v P P P P P P R R R R R R R R R R R R v v v v v v f f f f 6 + O + = + 6 : N V - : - ",
"= + = > 7 E - h % * 6 + = f f v v f f v v P P P P P P P P P P R R R R R R R R R R R R v v f f v v f f * = = = = W F : % % ; @ % ",
"+ o ; ; : : ; @ - : * * > f f v v f f v v P P P P P P P P P P R R R R R R R R R R R R v v f f v v f f * F = = + * g ; : : p @ - ",
"3 * > * o > ; c : 7 * * : f f v v f f v v P P P P P P P P P P R R R R R R R R R R R R v v f f v v f f ; : = w 6 * > o o > ; % : ",
"e + = = * - : - ; > = ; % f f v v f f v v P P P P P P P P P P R R R R R R R R R R R R v v f f v v f f : * O O 6 O w = > - : - ; ",
"6 O > w = * = ; % * = : q f f f f Q Q P P P P P P P P P P P P R R R R R R R R R R R R R R Q Q f f f f = = = = + O : = = w = ; % ",
"o = : O + = r : M : & o o f f f f Q Q P P P P P P P P P P P P R R R R R R R R R R R R R R Q Q f f f f + X O * o = : + + r = - K ",
"o o : + n = & o M : & * : : o f f Q Q P P R R P P ! ! P P R R R R R R R R ! ! R R R R R R Q Q f f + 3 e + 2 > o = - 6 6 = * ~ M ",
"o o * O + = : * % & o > : & o f f Q Q P P R R P P ! ! P P R R R R R R R R ! ! R R R R R R Q Q f f W O O F : o o o > + + o : : % ",
"> = = : % % : ; c ; : : & o o & > f f P P R R R R ! ! R R R R R R R R R R ! ! R R R R R R f f 2 ^ / Y + ( Y o > = = : % C : ; c ",
"- w O V $ h ; ; % h c g : o & > - f f P P R R R R ! ! R R R R R R R R R R ! ! R R R R R R f f ) _ l = e 6 = w - = O N $ M ; ; % ",
": O + Y h N N % y K h % : q p > - o o P P R R R R R R R R R R R R R R R R R R R R R R R R ; 7 % , h * = = = & & + + g M N % % y ",
"O 6 O Y % % h 0 9 d % ; ; q % - - * o P P R R R R R R R R R R R R R R R R R R R R R R R R : & : D 0 q o o & * X 6 2 ; g % h y 9 ",
"e O L V g N c y y h ; ; : o & - % & o O = R R R R R R R R R R R R R R R R R R R R R R ; : > > r & % - > > * + 6 O ; ; % N @ y y ",
"* ` h K 0 h q ; % N N % q * o % @ ~ = O O R R R R R R R R R R R R R R R R R R R R R R - & * : + o o > > o = O * t h K 0 M q ; % ",
"S ' 8 $ y t > & % ; V 7 ; : ; K N & = * * ] ] R R R R R R R R R R R R R R R R R R ] ] ; & * : O = o * o * ; t S [ b $ y @ > : c ",
"{ } l @ % ; > % @ * o & - p 0 K ; O O : ; ] ] R R R R R R R R R R R R R R R R R R ] ] : & o > * = o = w : d ' j ' y % % ; : % @ ",
"[ l h % ; - * p ; = = o & % l @ = X = | | f f ] ] ] ] ] ] Q Q Q Q Q Q ] ] ] ] ] ] f f | | o w w = w o > M a j } 0 M V ; : * p ; ",
"t ; ; : : : * * w + e O - % % : = > : | | f f ] ] ] ] ] ] Q Q Q Q Q Q ] ] ] ] ] ] f f | | * & o = = o : S j A t - ; : : > * * w ",
"- > > & * = o o > e . T * : - ; - > & | |  . .Q Q Q Q Q Q ] ] Q Q ] ] Q Q Q Q Q Q  . .| | o * & > > > t z 9 t - * > & * w o o > ",
"> o o * * * > : > ..n r = * - : > ; & | |  . .Q Q Q Q Q Q ] ] Q Q ] ] Q Q Q Q Q Q  . .| | = o > > > - D # G % > o o * * * > : > ",
"W + r o * > : * 6 . O o = 2 + e o - > | |  . .v v f f v v ] ] ] ] ] ] v v f f v v  . .| | = w o = = o % y y ; + + = o o > > = H ",
"e 6 r w 2 O = e 5 . i o = ( I X ; t X.| |  . .v v f f v v ] ] ] ] ] ] v v f f v v  . .| | + + r o > o * ; p = 6 6 r w O 2 O 3 5 ",
"O + r o X o.O.. 5 . 2 * o w > +.} ' A f f v v v v f f v v ] ]  . .] ] v v f f v v v v f f 6 + = ; % - = O 2 + O + o o + 3 O.. 5 ",
"= ; & O e 3 W + e e @.: @ m } < l t t f f v v v v f f v v ] ]  . .] ] v v f f v v v v f f O = = : : - > > * O = ; * O e #.W + 3 ",
"; ; ; o W 6 r e e 2 / l a } } 8 @ P P $.$.$.$.P P Q Q v v Q Q ] ] Q Q v v Q Q P P $.$.$.$.P P e 6 O ; p - > > ; % q o 6 W r e e ",
"a # @ = 6 e 6 w r h $ G A ' a N : P P $.$.$.$.P P Q Q v v Q Q ] ] Q Q v v Q Q P P $.$.$.$.P P   . O M l l Z %.&.z % 2 6 e + w r ",
"a D = 6 6 + H - > m G A ' z @ * o P P $.$.$.$.P P Q Q v v v v Q Q v v v v Q Q P P $.$.$.$.P P *.. Y Z # a j j a D O 6 + 6 T - > ",
"c = e . 3 6 6 * c # l A < y * = = P P $.$.$.$.P P Q Q v v v v Q Q v v v v Q Q P P $.$.$.$.P P O.3 D # 9 9 a ' @ = 3 5 3 e 6 ~ =.",
"; 6 .   3 = > & &.z &.b M ; * = + P P $.$.$.$.P P f f v v v v v v v v v v f f P P $.$.$.$.P P O g z b $ h h l % 6 5   e w > ; ' ",
"6 4 5 n r = 2 - < -.[ D - = + + O P P $.$.$.$.P P f f v v v v v v v v v v f f P P $.$.$.$.P P d K h b 8 c ;.O 6 4 5 W r r 2 p , ",
"O X r > = + = ; 8 < < t & o r = : = o P P P P Q Q Q Q f f f f v v f f f f Q Q Q Q P P P P :.( # h N y M u >.w O X = > 2 + = % 8 ",
"6 O * > 2 6 + & A < d : o = = = o = : P P P P Q Q Q Q f f f f v v f f f f Q Q Q Q P P P P 3 : A d @ @ ; ; $ 0 + = > > O 6 X q a ",
"5 e r o = O + @ 9 $ N & o * = o o & ; : > f f v v v v Q Q Q Q f f Q Q Q Q v v v v f f . 6 - K Z 8 b t ; - p : 3 e r o = + O M 9 ",
"6 = : * O + = ; % y N & o o = o = o ,.* w f f v v v v Q Q Q Q f f Q Q Q Q v v v v f f W * % @ c c K % & o r 6 6 w : * O + * ; % ",
"o & - * = * : o > ; d g o > > > o o o % E <.<.<.<.v v v v v v f f v v v v v v <.<.<.<.: ; - ; ; l h % & o = o o - - * = & : o > ",
"; O > 2 e e = y # g 0 0 ; > p d - - q % @ <.<.<.<.v v v v v v f f v v v v v v <.<.<.<.* > > - ; ; - : - > * ; q O > O e 6 * y # ",
"o + O e 3 6 1.z t ; Z Z M % ; ; > o & 2.2.] ] ] ] <.<.<.<.2.2.- @ 2.2.<.<.<.<.] ] ] ] 2.2.: @ ; ; X.: > > > > o 6 O e 3 W 3.# @ ",
"o = 6 + + e e * > b A 0 % ; ; > - o o 2.2.] ] ] ] <.<.<.<.2.2.K # 2.2.<.<.<.<.] ] ] ] 2.2.* K ; G 1.: & o * q o = 6 O + e 6 * > ",
"e 3 3 e 3 . 3 = ; z S @ t t ; > - o o 2.2.] ] ] ] ] ] ] ] 2.2.4.4.2.2.] ] ] ] ] ] ] ] 2.2.O h M K - t @ - & = 6 . e e 3 . e * ; ",
"e e 3 . . . e = ; z } t - > - o o o o 2.2.] ] ] ] ] ] ] ] 2.2.5.6.2.2.] ] ] ] ] ] ] ] 2.2.F K ; 8 ,.6 O o = O e e . . . . 6 * ; ",
"e 5 5 3 e e O @ G c =.G M & : = = 7.7.2.2.] ] ] ] ] ] ] ] 2.2.8.8.2.2.] ] ] ] ] ] ] ] 2.2.9.0.> - K ; w 6 . 3 e   . 3 e e = h G ",
"e 3 w - : > p l ; ; d $ L + = o O q.w.2.2.] ] ] ] ] ] ] ] 2.2.e.8.2.2.] ] ] ] ] ] ] ] 2.2.9.9.- - - - > W . e e 3 * - > J % 0 ; ",
"> o o o = : G @ - X.* * - > = = O 7.q.2.2.2.2.2.2.2.2.2.2.2.2.r.6.2.2.2.2.2.2.2.2.2.2.2.2.0.0.t.o o = > - : o > o o o r V l X.- ",
"o > : = r ; y % - - * : ; : * + 6 y.y.2.2.2.2.2.2.2.2.2.2.2.2.6.6.2.2.2.2.2.2.2.2.2.2.2.2.r.u.= o = > * * & o o : : = = % y % - ",
"6 6 3 F M d Z 0 o 6 w * O = ; - o i.9.8.9.p.a.y.r.s.s.r.9.9.8.8.9.q.w.q.d.7.y.y.q.7.0.y.9.0.7.o 3.> > * = = = 6 e 3 f.M D b h o ",
"- = 6 ; $ K =.* 6 > - * & - o = = a.a.a.a.g.r.y.8.h.a.9.9.9.a.8.8.i.j.q.i.d.0.7.9.q.i.7.9.k.q.= = = O 6 6 w : - = 6 c $ K N = 6 ",
"= O 6 * c V q & > M c * g d = w - @ p 9.0.0.y.8.l.p.y.9.a.a.8.9.r.r.7.7.y.y.k.w.7.0.9.9.k.* = e e 6 6 e + O + = O 6 Y N V : & > ",
"o 6 O * 7 @ - h @ & n 6 @.* - ; > % p 9.9.9.y.9.9.9.y.9.8.9.y.8.g.8.y.0.0.7.d.i.7.9.a.a.a.M ; = - = > > = = = = 6 = > E E ; h @ ",
"O o C g ; - ; @ - w o & > * ; @ > ; - - & & q o ; * : : > & & @ $ u O = O O * ; ; l t ; : % % o o O = = = O = O o g g - - p X.- "
};
