/* XPM */
static char *ea1f62a369b34dc6c4731d2d2115715dx9BT1ot0ACE0NTiw[] = {
/* columns rows colors chars-per-pixel */
"64 64 142 2 ",
"   c #000000",
".  c #070808",
"X  c #0B0C0C",
"o  c #0F1110",
"O  c #131314",
"+  c #161817",
"@  c #161919",
"#  c #1A1C1A",
"$  c #212121",
"%  c #24282A",
"&  c #2A2E2D",
"*  c #2F3431",
"=  c #363736",
"-  c #353836",
";  c #33383A",
":  c #3C3B3B",
">  c #3A4043",
",  c #434343",
"<  c #484746",
"1  c #414844",
"2  c #494C4E",
"3  c #4B524E",
"4  c #51504F",
"5  c #4D5450",
"6  c #525452",
"7  c #5E5D5C",
"8  c #545D5A",
"9  c #605F5E",
"0  c #61605F",
"q  c #555D61",
"w  c #484A77",
"e  c #52557E",
"r  c #5C6568",
"t  c #626160",
"y  c #686766",
"u  c #616B6F",
"i  c #706D6D",
"p  c #72706F",
"a  c #6B6F72",
"s  c #677272",
"d  c #6D7872",
"f  c #6B777A",
"g  c #757373",
"h  c #797776",
"j  c #747F79",
"k  c #7F7D7C",
"l  c #817F7E",
"z  c #748079",
"x  c #79867F",
"c  c #83807F",
"v  c #4A548E",
"b  c #585C82",
"n  c #666C8C",
"m  c #4D65B4",
"M  c #5D74B8",
"N  c #6876A3",
"B  c #6378BD",
"V  c #7D8A82",
"C  c #778388",
"Z  c #788198",
"A  c #7B8DB1",
"S  c #4D87D3",
"D  c #779ED9",
"F  c #7789C6",
"G  c #4D9BE6",
"H  c #5BA3E8",
"J  c #63A8E9",
"K  c #858383",
"L  c #888786",
"P  c #898887",
"I  c #818E8F",
"U  c #8E8C8A",
"Y  c #918E8D",
"T  c #8A978F",
"R  c #93908F",
"E  c #828C9D",
"W  c #88969C",
"Q  c #8B999F",
"!  c #879594",
"~  c #969493",
"^  c #999796",
"/  c #9A9897",
"(  c #9C9A99",
")  c #A09E9D",
"_  c #98A89F",
"`  c #A2A09F",
"'  c #8F9DA3",
"]  c #8D9AA8",
"[  c #96A6A6",
"{  c #97A5AF",
"}  c #9BABB2",
"|  c #A2A1A0",
" . c #A3B1AB",
".. c #A0B1B6",
"X. c #ABBDBC",
"o. c #ADBAB4",
"O. c #AEC1B6",
"+. c #B1C4B9",
"@. c #B8C8BF",
"#. c #909FD0",
"$. c #99AFC5",
"%. c #9FB5C7",
"&. c #9EABD6",
"*. c #93AEDD",
"=. c #B7CAC5",
"-. c #B9CCC6",
";. c #BDD1C9",
":. c #BED1D2",
">. c #90C1EF",
",. c #BBC5E3",
"<. c #B1CAE3",
"1. c #AED2F4",
"2. c #BCDAF6",
"3. c #C2C5C4",
"4. c #C1D6CC",
"5. c #C5DACE",
"6. c #CDD3D0",
"7. c #C7DCD0",
"8. c #CADDD2",
"9. c #DFDFDF",
"0. c #CEE0D6",
"q. c #D9E7DF",
"w. c #D4E4DB",
"e. c #C5CDE6",
"r. c #C8DFEE",
"t. c #D5DBED",
"y. c #DCE5E0",
"u. c #DCE9E2",
"i. c #E3E3E3",
"p. c #EAF2ED",
"a. c #E3E8F1",
"s. c #EAECF6",
"d. c #EDF4F0",
"f. c #E9F3FC",
"g. c #F3F7F5",
"h. c #F1F3F9",
"j. c #F7F8FC",
"k. c #F8FBF9",
"l. c #F9FBFA",
"z. c white",
"x. c #FEFEFE",
"c. c #FDFEFD",
/* pixels */
"` ) ( / ^ ^ / / ( ^ ~ Y R ~ ^ ^ ^ ^ ^ / ^ ^ ^ ^ ^ ^ ^ ^ ^ ^ ^ ~ Y Y Y Y ~ ^ ( ( ( ( ( ( ( / / / / ( / / / ( ) ` ` ) ( ( ^ ~ R Y ",
"( ( / ^ ^ / / / / ^ ~ ~ R ~ ^ ^ ^ ^ ^ / ^ ^ ^ ^ ^ ^ ^ / / ^ ~ Y P Y ~ ~ ^ / / ( ( ( ( ( ( / / ( ( ( / / ( ) ) ` ) ( ( ^ ^ ~ ~ ~ ",
"( / ^ ^ ^ / / / ^ ^ ^ ^ ~ ~ ~ ^ ^ ^ ^ / ^ ^ ^ ^ / ^ ^ ^ / ^ ~ U P Y ~ ^ ^ / / ( ( ) ( ( / / / ( ( / ^ ^ ( ( ( ( ( ( ^ ^ ^ ~ ~ ~ ",
"^ ^ ^ ^ ^ / / ^ ^ ^ ^ ^ ^ ~ ~ ~ ^ ^ ^ ^ ^ ^ ^ ^ ^ ^ ~ ~ ^ ~ R U P R ~ ^ ^ / ( ( ` ` ( / ^ ^ ^ ^ ^ ^ ~ ~ ^ / / / / ^ ^ ^ ^ ^ ^ ^ ",
"^ ^ / ^ / ( ( ( / ~ R R ~ ~ ~ ~ ^ ^ ^ ^ ~ ^ ^ ^ ^ ^ ~ ~ ~ ~ ~ Y U R ~ ^ / ( ( ) ) ( ^ ^ ~ ~ ~ ~ ~ R R R ~ ^ ^ ^ ^ ^ ^ ^ ^ ^ ^ ^ ",
"^ / ( / ( ( ( ( ^ ~ R ~ ~ ~ R R ~ ~ ^ ^ ~ ^ ^ ^ ^ ^ ^ ~ ~ ~ ~ ~ Y ~ ^ ^ ( ( ) ) ) ( ^ ~ ~ Y Y ~ ~ ~ R R ~ ^ ^ ^ ^ ^ ^ ^ ^ ^ ~ ^ ",
"^ / ( ( ( ( ( ( / ~ ~ ~ ~ R R R ~ ~ ^ ^ ^ ^ ^ ^ ^ ^ ^ ~ ^ ^ K 7 8 l ^ / ( ) ) ( ( ^ ~ ~ ~ ~ ~ ~ ~ ~ ~ ~ ^ ^ ^ ^ / / / / ^ ~ ~ ^ ",
"/ / ( ( ( ( ( ( ( ( / ^ Y Y R ~ ~ ~ ^ ^ ^ ^ ^ ^ ^ ^ ^ ^ L K 7 # # 7 K L / ) ( ( / ~ R Y ~ ~ ^ ^ ^ ^ ^ ^ ^ ^ ^ ^ / / / / ^ ~ ~ ~ ",
"( ( ( ( ( ( ( ) ) ( / ^ Y Y R ~ ~ ~ ~ ^ ^ ^ ^ ^ ^ ^ ^ K $ O 5 +.9.7 O $ P ( ( ( ^ ~ Y R ~ ^ ~ ~ ~ ^ ^ ^ ^ ^ ^ ^ / / / / / ~ ~ ~ ",
"( ( ( ) ( ( ) ( ( ( ^ ^ Y Y Y ~ ~ ^ ^ ^ ^ ^ ^ ^ ^ ^ ^ K O   3 0.k.7   O L ( ( / ^ ~ Y R ~ ^ ^ ^ ^ ^ ^ ^ / / ^ ^ / / / / / ~ ~ ~ ",
"( ) ( ) ( ( ( ( ( ^ ^ ~ R R R ~ ~ ^ ^ ^ ^ ^ ^ ^ / / K 7 5 3 x 0.k./ t t t K ^ ^ ~ ~ R ~ ~ ~ ^ ^ ^ ^ ^ ^ / / / / / ( ( ( ^ ^ ^ ^ ",
"( ) ) ( ( ( ( ( / ~ ~ ~ ~ ~ R R ~ ^ ^ ^ / / / / / ( t # O.7.4.:.a.j.z.9.$ 7 ~ ~ R ~ ~ ^ ^ ~ ~ ~ ^ ^ ^ / ( / / ( ( ( ( ( ^ ^ ^ ^ ",
"( ( ( / ^ ^ ^ ^ ^ ~ ~ ~ ~ ~ ~ ~ ~ / / / ^ / / ( ( ( t # O.7.%.M B e.z.9.$ 7 R ~ ~ ~ ~ ~ ~ ~ ~ ^ ^ ^ ^ / ( / / ( ) ( ( / ^ ^ ^ ^ ",
"/ / / ^ ^ ^ ^ ^ ~ ~ ~ ^ ^ ~ ^ ^ ^ ^ ^ / / / / / ( ( t # O.7.$.m m ,.z.9.$ 7 ~ R R ~ ~ ~ ~ ~ ^ / / / / ( ) ( ( ` ) ( / ^ ^ ^ ^ / ",
"/ / ^ ^ ^ / ^ ~ R ~ ~ ^ ^ ^ ^ ^ ^ ^ ^ / / / / ~ y t 8 8 ' { A m m *.2.<.a 7 7 t P ~ ~ R ~ ~ ^ / ( ( ( ( ) ( ( ) ( ( ^ ^ ^ ^ ^ / ",
"/ / / / / ^ ^ ~ R ~ ~ ^ ^ ^ ^ ^ ^ ^ ^ ^ / / / K O   3 =.b w v m m S G J f.7   O l ~ ~ ~ ^ / / / / ( ( ( ) ) ( ( / ^ ^ ^ ^ ~ ^ / ",
"( ( ( ( / ~ ~ ~ R ~ ~ / / / / ^ / / ^ ^ ^ ^ / K O   3 =.b w v m m S G J f.7   O K ^ ^ ^ ( ( ( ( ( / / / / ( ( / / ^ ^ ^ ^ / / ^ ",
"^ / ( ( ^ ~ R ~ ~ ~ ^ / / ^ ^ ^ ^ ^ ^ ^ / / ^ K O   3 =.b w v m m S G J f.7   O K ^ ^ ^ / ( ( ( / / / ^ / / / / / / ^ ^ ^ / / / ",
"^ / / ( ^ ~ ~ ~ ~ ^ / / ^ ^ ^ ^ ^ ^ ^ ^ / ^ K 8 5 3 s ] e w v m m S G H 1.E t 7 7 c ^ ^ ^ / ( / / / / / / / ^ / / ^ ^ ^ ^ / ( ( ",
"/ / ( ( ^ ~ ~ ~ ^ ^ ^ ^ ~ ^ ^ ^ ^ ~ ~ ^ ^ ^ 7 # O.7.{ w w w v m m S G G G 2.z.9.$ 7 ^ ~ ~ ^ ^ / ^ ^ / / ( / ^ ^ ^ ^ ^ ^ ^ ^ / ( ",
"/ / / / ^ ^ ~ ~ ^ ~ ~ ^ ^ / ( / / ^ ^ ^ ^ ^ 7 # O.7.{ w w w v m m S G G G 2.z.9.$ 7 ~ ~ ^ ^ ^ ^ / / / / / / ^ ^ ~ ~ ~ ~ ~ ~ ^ / ",
"/ / ^ ^ ^ ^ ^ ^ ^ ~ ~ ^ ^ / / / ^ ^ ^ ^ ~ ^ 7 # O.7.{ w w w v m m S G G G 2.z.9.$ 7 ~ ~ ^ / / / / / / ^ ^ ^ ~ ~ ~ ^ ^ ^ ~ ^ ^ ^ ",
"( / ^ ^ ^ ^ ^ ^ ^ ~ ~ ^ ^ ^ ^ ^ ^ ^ ^ ^ ~ ~ 7 @  .=.} Z Z Z N m m D >.>.>.r.p.6.# 7 ~ ^ / ( ( / / / ^ ~ ~ ~ ~ ~ ^ ^ ^ ^ ^ ^ ^ ^ ",
"( / ^ ^ ^ ^ ^ ^ ^ ~ ~ ^ ^ ^ ^ ^ ^ ^ ^ ~ K c 4 O W } X.7.7.7.%.M B e.z.z.k.q.7.O.# 4 K P / ( ( / / ^ ~ ~ R R ~ ^ ^ ^ ^ ^ ^ ^ ^ / ",
"( ( / / / ^ ^ ^ ^ ^ ^ ^ ^ ^ ^ ^ ~ ^ ~ K $ O X O W } X.7.7.7.4.:.a.j.z.k.w.8.7.O.# X O $ P / / / ^ ~ ~ R ~ ~ ~ ^ ^ ^ ^ ^ ^ ^ ^ / ",
"( ( / ^ / / ^ ^ ^ ^ ^ ^ ^ / ^ ^ ^ ^ ^ K O     O W } X.7.7.7.7.0.k.z.z.k.0.7.7.O.#     O K / ^ ^ ^ ~ ~ ~ ~ ~ ~ ^ ^ ^ / / / ^ ^ / ",
"/ / / ^ / / / ^ / ^ ^ ~ ^ ^ ^ ^ ^ ^ K 8 > > % X q u I -.5.7.7.0.k.z.z.k.0._ V d o * 3 5 7 K ^ ^ ^ ~ ~ ~ ^ ^ ^ ^ / / / / / / / / ",
"^ / ^ ^ / ( / / / ^ ^ ~ ^ ^ ^ ^ L K 7 & Q } u       > ..4.7.7.0.k.z.z.k.0.3       V 7.+.= 7 K K ~ ^ ^ ^ ( / / / / ( ( ( ( ( ( ( ",
"^ ^ ^ ^ / ( ( / ^ ^ ^ ~ ^ ^ ^ L $ O 5 o.} } u       > ..4.7.7.0.k.z.z.k.0.3       V 7.8.9.7 O $ L ^ ^ / ( / / / ( ( ( ( ( ( ( ( ",
"^ ^ ^ ^ / ( / / ^ ^ ^ ~ ^ ^ ^ K O   3 4...} u       > ..4.7.7.0.k.z.z.k.0.3       V 7.0.k.7   O K / / / / / / / ( ( ( ( ( ( ( ( ",
"^ ^ ^ ^ / / ^ ^ ^ ^ ^ ~ ^ ^ K 7 5 3 x 4...} u       > ..4.7.7.0.k.z.z.k.0.3       V 7.0.k./ t t 9 K / ^ ^ ^ ^ / / / / / ( ( ( ( ",
"^ / / / ^ ~ ~ ~ ^ ^ ~ ~ K K 7 * +.7.7.4...} u       > ..4.7.7.0.k.z.z.k.0.3       V 7.0.k.z.z.i.: 9 K K ~ ^ ^ ^ ^ ^ ^ / / / / / ",
"^ ^ / / ^ ~ ~ ~ ~ ^ ^ K $ O 3 +.5.7.7.4...} u       > ..4.7.7.0.k.z.z.k.0.3       V 7.0.k.z.z.k.i.7 O $ K ^ ^ ^ ^ ^ ^ ^ ^ ^ ^ ^ ",
"^ / / / ^ ~ ~ ~ ~ ~ ~ c O   3 5.7.7.7.4...} u       > ..4.7.7.0.k.z.z.k.0.3       V 7.0.k.z.z.z.z.7   O K ^ ^ ^ ^ ^ ^ ^ ^ ^ ~ ~ ",
"^ / ( / ^ ~ ~ ~ ~ ~ l 7 5 3 x 4.} { X.4...} u       > ..4.7.7.0.k.z.z.k.0.3       V 7.0.k.t.,.e.j./ t 9 7 K ^ ^ ^ ^ ^ ^ ^ ^ ^ ^ ",
"/ ( ( / ~ ~ ~ ~ K l 7 * +.7.5.=.b w Z 4...} u       > ..4.7.7.0.k.z.z.k.0.3       V 7.0.k.#.m B s.z.z.i.: 9 K L ~ ^ ^ ^ ^ ^ ^ ^ ",
"( ( / ^ ~ ~ ~ K $ O 5 +.5.7.7.=.b w Z 4...} u       > ..4.7.7.0.k.z.z.k.0.3       V 7.0.k.#.m B s.z.z.k.i.7 O $ K ~ ^ ^ ^ ^ ^ / ",
"/ ^ ~ ~ ~ ~ p , j V _ ;.E Z { =.b w Z 4...} u       > ..4.7.7.0.k.z.z.k.0.3       V 7.0.k.#.m B s.,.#.&.h.3.| ~ < g ^ ^ ^ ^ ^ / ",
"~ ~ R ~ ~ ~ 7 # O.7.7.=.b w Z =.b w Z 4...} u       > ..4.7.7.0.k.z.z.k.0.3       V 7.0.k.#.m B s.#.m B s.z.z.9.$ 7 ^ ^ ^ ^ ^ ( ",
"Y Y Y Y c l 8 * +.7.7.=.b w Z -.n b E 4...} u       > ..4.7.7.0.k.z.z.k.0.3       V 7.0.k.&.B F s.#.m B s.z.z.i.: 7 K K ^ ^ ^ / ",
"U U Y c $ O 3 +.5.7.7.=.b w Z 5.-.=.;.4...} u       > ..4.7.7.0.k.z.z.k.0.3       V 7.0.k.h.s.s.z.#.m B s.z.z.k.i.7 O $ L ^ ^ ^ ",
"U Y i : r u ! 7.7.7.7.4.} { X.7.7.7.;.X.} } u       > ..4.7.7.0.k.z.z.k.0.3       V 7.8.q.g.z.z.z.t.,.e.j.z.z.z.z.o.V j , g / / ",
"Y ~ 7 O W } X.7.7.7.7.7.7.7.7.7.7.7.=.} } } u       > ..4.7.7.0.k.z.z.k.0.3       V 7.7.7.p.z.z.z.z.z.z.z.z.z.z.z.u.7.O.# 9 ^ / ",
"~ ~ 7 O W } X.7.7.7.7.7.7.7.5.4.4.4.X.W W W q       ; ' ;.7.7.0.k.z.z.g.@.1       d O.O.O.y.k.k.k.z.z.z.z.z.z.z.z.u.7.O.# 7 ^ ^ ",
"^ ^ 7 O W } X.7.7.7.7.7.7.7.-.......f O O O X       . & +.7.7.0.k.z.z.i.- .       o # # # T 0.0.0.d.z.z.z.z.z.z.z.u.7.O.# 9 ^ ^ ",
"^ ^ 7 @  .=.;.7.7.7.;.X.X.X.I > > > 2 7 7 7 7 7 7 7 : # O.7.7.0.k.z.z.9.$ : 7 9 9 9 7 7 8 6 3 3 3  .u.u.u.g.z.z.z.g.p.6.# 9 ^ ^ ",
"/ / 9 # O.7.7.7.7.7.=.} } } u       : / / ^ ^ ^ ^ ^ 9 # O.7.7.0.k.z.z.9.$ 7 ^ ^ ^ ^ ~ R Y =       V 7.7.7.p.z.z.z.z.z.9.$ 9 ^ ^ ",
"( ( t # O.7.5.4.4.4.X.W W W r O O O < ( ( / ^ ^ ^ ^ 7 # O.7.7.0.k.z.z.9.$ 7 ^ ^ ~ ~ ~ R ~ , O O O z O.O.O.y.k.k.k.z.z.9.$ 9 / ^ ",
"( ( t # O.7.-.......f O O O > K K L Y ( ( ^ ~ ~ ~ ~ 7 # O.5.7.0.k.z.z.9.$ 7 ^ ~ ~ ~ ~ ~ ~ P K K K , # # # T 0.0.0.d.z.9.$ t / / ",
"( ( t @ [ X.I > > > 2 t t t g ^ ^ / / / ~ ~ Y Y R ~ 7 # O.5.7.0.k.z.z.9.$ 7 ~ ~ ~ ~ ~ ~ ^ ^ ^ / / g 9 9 9 6 3 3 3  .u.3.# t / / ",
"/ / 9 O W } u       : ) ( ( / ^ ^ ^ ~ ~ Y Y Y Y R R 7 # O.7.7.0.k.z.z.9.$ 7 ~ ~ ~ ~ ~ ~ ^ / / / / / / / ^ :       V 7.O.# 0 / / ",
"/ ^ 7 O C W r O O O < ( ( ( ^ ^ ~ R Y U Y Y ~ ~ ~ ~ 7 # O.7.7.0.k.z.z.9.$ 7 ~ ~ R R ~ ^ / / ( ( ( / / / / < O O O j O._ + 9 / / ",
"^ ^ 7   O O , L K L R ( / ^ ~ R Y Y U U Y ~ ~ ^ ^ ^ 7 # O.7.7.0.k.z.z.9.$ 7 ~ ~ ~ ~ ~ ^ ( ( ( ( ( ( ( ( / U K K K , # +   t ( ( ",
"R R k 7 9 t h ( ( / / / ^ ~ ~ R Y Y U Y ~ ~ ^ ^ ^ ^ 7 # O.7._ 5 7 3.z.9.$ 7 ~ ~ ~ ^ ^ ( ( ( ( ( ( ( / / / / / ^ / g 9 9 t L ) ) ",
"Y Y ~ ^ / ( ( ( ( / ^ ^ ~ R R Y Y Y Y R ~ ^ ^ ^ ^ ^ 9 # O.7.V     | z.9.$ 7 ~ ^ ^ ^ / ( ( ( ( ( ( / / / / / / ^ / / / / ( ) ` ` ",
"Y R ~ / ( ( ( ( ( / ^ ^ R R R Y U Y R ~ ^ ^ ^ / ^ ^ 9 + _ O.j O O ~ 9.3.# 7 ^ ^ ( / / ( / / / ( / / ^ ^ / / / ^ / / / ( ) | | | ",
"~ ^ / ( ( ( ( ( ( / ^ ~ Y Y R Y Y Y ~ ^ / / / / / / 9   + # , K K < $ # . 7 ^ / / ^ ^ ^ / / / / / / / ( ( ( / / ^ / / ( ` | | ) ",
"~ / ( ) ) ) ( / / ^ ^ R Y Y Y R R ~ ^ ^ / / / / / / K 9 9 9 g ^ ^ g 7 7 7 l ^ / / ^ ^ ^ / / / ^ ^ / / / / / / ^ / / ( ( ` | ) ( ",
"^ ( ( ) ) ( ( / / ^ ~ Y U U Y R ~ ^ ^ / / / ( / / / / / / ^ ^ ^ ^ ^ ^ ^ ~ ^ ^ ^ ^ ^ ^ ^ / / ^ ^ ^ / / / / / / / / ( ( ( ` ) ( ^ ",
"( ( ) ) ( / / / / ^ ~ Y U U Y ~ ^ ^ / ( ( / / / / / / ^ ^ ^ ^ ^ ^ ^ ^ ^ ^ ^ ^ ^ ^ ^ ^ ^ ^ ^ ^ ^ ^ / / / / / / / / ( ( ) ) ( / ~ ",
"/ ( / / / / / ( / ^ ~ Y Y Y Y ~ ^ ^ / / / ^ ^ / ^ ^ ^ ^ ^ / / ^ ^ ^ ^ ^ ^ ^ ^ / / / ^ ^ ^ ^ ^ ^ ^ / / ( ^ / ( ( ( ) ) ) ) ( ^ Y ",
"( / / ^ ^ / / ( / ^ ~ Y Y Y ~ ^ ^ ^ / / / ^ ^ / ^ ^ / ^ ^ ^ ^ ^ ^ ^ ~ ~ ~ ^ ^ / ( / ^ ^ ^ ^ ^ ^ / / ( ( / ( ) ) ) ) ( ( ( ( ~ Y ",
"( ( / ^ / / / ( ( ^ ~ Y Y R ~ ^ ^ ^ / / / ^ ^ ^ ^ ^ ^ ^ ^ ^ ^ ^ ~ ~ R ~ ~ ^ / ( ( / / / / ^ ^ / / ( ( / / ( ) | | ) ( ( ( ^ ~ Y ",
") ( ( / ^ / / / ( ^ ~ Y R ~ ^ ^ ^ ^ ^ / ^ ^ ^ ^ ^ ^ ^ ^ ^ ^ ^ ~ Y Y Y R ~ ^ ( ( ( / ( ( / / / / / ( / / / ( ) | | ` ( ( ^ ~ R Y "
};
