/* XPM */
static char *c3bb50e5e294466bea55bf1e32bf6ac7IvdcQlW7LK44GYfu[] = {
/* columns rows colors chars-per-pixel */
"64 64 119 2 ",
"   c #A2A09F",
".  c #A09E9D",
"X  c #9B9999",
"o  c #999797",
"O  c #9B9998",
"+  c #9C9A99",
"@  c #959392",
"#  c #918E8D",
"$  c #94918F",
"%  c #969493",
"&  c #989696",
"*  c #999796",
"=  c #9A9897",
"-  c #979695",
";  c #979594",
":  c #989695",
">  c #989796",
",  c #8F8D8C",
"<  c #908D8C",
"1  c #949392",
"2  c #9A9998",
"3  c #9F9D9C",
"4  c #A1A09F",
"5  c #A19F9E",
"6  c #9D9B9A",
"7  c #969593",
"8  c #928F8D",
"9  c #918E8C",
"0  c #949190",
"q  c #979595",
"w  c #999897",
"e  c #9E9C9B",
"r  c #9A9898",
"t  c #949291",
"y  c #93918F",
"u  c #9A9896",
"i  c #9B9A99",
"p  c #969594",
"a  c #908E8C",
"s  c #8B8887",
"d  c #949290",
"f  c #979493",
"g  c #959291",
"h  c #8E8C8A",
"j  c #8D8B89",
"k  c #A09F9E",
"l  c #93908F",
"z  c #908E8D",
"x  c #939290",
"c  c #969392",
"v  c #92908E",
"b  c #918F8D",
"n  c #9D9B9B",
"m  c #918F8E",
"M  c #959391",
"N  c #969492",
"B  c #939190",
"V  c #9A9797",
"C  c #979593",
"Z  c #979494",
"A  c #928F8E",
"S  c #93908E",
"D  c #92908F",
"F  c #9D9A99",
"G  c #959290",
"H  c #9C9998",
"J  c #9A9796",
"K  c #979694",
"L  c #969391",
"P  c #9D9C9B",
"I  c #989795",
"U  c #989694",
"Y  c #9F9C9B",
"T  c #989594",
"R  c #9F9E9D",
"E  c #A3A1A0",
"W  c #999696",
"Q  c #9A9795",
"!  c #9C9B9A",
"~  c #959492",
"^  c #959493",
"/  c #9C9A9A",
"(  c #959393",
")  c #949391",
"_  c #999795",
"`  c #969393",
"'  c #908D8D",
"]  c #8E8C8B",
"[  c #9C9A98",
"{  c #959292",
"}  c #8F8D8B",
"|  c #8D8B8A",
" . c #8E8B8A",
".. c #8F8C8B",
"X. c #9E9D9C",
"o. c #928F8F",
"O. c #9B9898",
"+. c #9E9C9C",
"@. c #908F8E",
"#. c #8F8E8C",
"$. c #A3A1A1",
"%. c #A2A1A0",
"&. c #A2A0A0",
"*. c #8E8D8B",
"=. c #9B9897",
"-. c #A09D9C",
";. c #9B9A98",
":. c #9B9997",
">. c #908F8D",
",. c #8C8A88",
"<. c #8D8C8A",
"1. c #A09E9E",
"2. c #949191",
"3. c #989595",
"4. c #969494",
"5. c #8F8C8C",
"6. c #9E9C9A",
"7. c #A4A2A1",
"8. c #999694",
/* pixels */
"  . X o o O + @ # $ % & o * = o o - ; : > : ; % , < # 1 2 3 3 O . O = = O + = = .   4 5 6 7 $ 8 8 9 0 q > - w 5 e r o = + O t # ",
"e w - * O + * ; ; y @ & o o = o = o O * u i p a s d - w = O e . 3 O + 6 6 O * . 5   . + & % @ f % g 7 > o O e 6 > ; * + + * ; ; ",
"o : - * = * : o > ; d % > > > > o o o % @ - @ h j t ; - 2 3 k 4 = o o = * ; @ - 6 r = : ; - ; ; l g % & o = o o - - * = & : * > ",
"; O * O e e = y z f 0 0 ; & p x - - ; % @ c c 8 h @ & = 6 5 . o ; 0 l t d v b d > - * * > > - ; ; - > & > * ; ; + > i e e * v < ",
"o + + e 3 n : # @ % m v M % ; ; > o & - % N : @ v p * e   5 3 ; @ l z B c $ y ; o = o o V : g ; C % : > > > > o 6 + e 3 6 Z A @ ",
"= r 6 + + e e = > m b 0 % ; ; > - o o o o o & - ; : o n . e * 0 # @ ; ; ; ; - o - - O O O * d f S : ; : o * : o O 6 + 6 3 e = > ",
"e 3 3 e 3 . 3 = ; z D t g g ; > - o o o & p % - % % : F 3 6 : b b % ; N % > > o > ; O O O O g M G : @ % - > r 6 . 3 e 3 . e * ; ",
"e e . . . 3 e * C b < B - > - o o o o o o > : % o O O 6 6 = % z G C - - ; - > > > = = O H J g ; S J + O = O O e 3 . . . 3 6 * % ",
"e 5 . e 6 6 O g $ N M S c o : = = = O 6 e + = w O e 3 O Z 0 y ; K ; L N : * = + o O O 3 P & o > - M ; * 6 . 3 e 5 3 P 6 6 = t $ ",
"6 e w - > I % 0 ; ; M G U O = o O + e 3 e 6 O 6 6 . Y T 0 G M C C 7 c ; * * w 3 w R 5 3 O - - > - - - > + 3 6 6 e * - > - @ 0 ; ",
"> o * o r U S @ - % * * - : = = O = + 6 6 6 F = w = L c N $ S @ G $ 7 O + O +   + E 5 O & & W O o o o > - : o > o * o r f l % - ",
"r o * = V % D c - : * : ; : > O + * > & - ; % o q y 8 $ 0 l B M M : = = i e e 4 . e o * : % @ = & w > * * > o r * * = o @ y % - ",
"+ 6 Y Q M d v g = + w * = = - > o = : ; - p % > % A D @ - : ; ; - 6 e 6 + = > * + O = > & o O o ; > > = O = o + 6 Y T g 0 l @ r ",
": = 6 U d M N * ! - - > : ; o = w % % p ; ; % : % B 7 - ; ; % ; ; = e + 2 i o O > + 2 = & * 6 O O O O e 6 = > > = 6 % 0 M f = 6 ",
"= O 6 * N % - : - c T J ; M * * - @ p & > > > ; t p > : % % - - % % * w > > w 6 = o - : & : = 6 6 + + 6 + O + = + 6 : N C - : - ",
"= + = > 7 ~ - g % * 6 + = * ; ; > % ; - - & & & - : & : ; - > % % : * o = r O O * ; ^ % % M ; = & = * * = = = = / J : % % ; @ % ",
"+ o ; ; : : ; @ - : * * > * ; % > ; - - : & q o : * ; : : - : t M O + O O O q @ @ t ( - & ; ; o o r = * J = = + * f ; : : p @ - ",
"3 * > * o > ; c : 7 * * : K ; @ % ; - ; ; - ; > ; - c % ; ; % d = 6 6 O = I 0 S l ; * o o * * = = o & ; : = w 6 * > o o > ; % : ",
"e + = = * - : - ; > = ; % ; M d ) - & q q : - - g ; c N N M q ; 6 r = w - M y M G ; * o o > > = = O w : * O O 6 O w = > - : - ; ",
"6 O > w = * = ; % * = : q & - K - > o o = = > - > > % ; % % r o O O J : f @ c f f W o r r w * = + e O = = = = + O : = = w = ; % ",
"o = : O + = r : M : & o o > * & - * o = = = o : = O > & > o O X e + c N : : : F = o O 6 6 + + + e 6 6 + X O * o = : + + r = - G ",
"o o : + n = & o M : & * : : o o > O o o o o > > = O > o = = + e . = c U = * w 6 = O 6 e e 3 3 e e + 3 e + 2 > o = - 6 6 = * W M ",
"o o * O + = : * % & o > : & o > & o & > o * - o o o > O + O 6 e . f c ; = + = = * O O O + 6 e n + / O O J : o o o > + + o : : % ",
"> = = : % % : ; c ; : : & o o & > > - w O w > o r = o + 6 O w O 6 B t 7 U _ & - - - ; * 2 = O 2 ( ` T + H T o > = = : % Z : ; c ",
"- w O C $ g ; ; % g c f : o & > - & : 2 O * > O + * * u : ; > = : B @ @ M N % ; - > - p ; - p K ' l = e 6 = w - = O N $ M ; ; % ",
": O + T g N N % y G g % : q p > - o o = = > w 6 : g ; @ A A B N G g d d M % % ; > * : p p ; 7 % , g * = = = & & + + f M N % % y ",
"O 6 O T % % g 0 9 d % ; ; q % - - * o = * & r + m d : B h ] ] 9 g % M $ 0 % & & o = : - - : & : B 0 q o o & * X 6 2 ; f % g y 9 ",
"e O U C f N c y y g ; ; : o & - % & o O = * = [ l p * D j h # y % & : d y % > > * * : ; : > > r & % - > > * + 6 O ; ; % N @ y y ",
"* { g G 0 g q ; % N N % q * o % @ W = O O = O = C x D D A y c % ; : * N $ M > - - > > - & * : + o o > > o = O * t g G 0 M q ; % ",
"D } 8 $ y t > & % ; C 7 ; : ; G N & = * * = * & U # | B T f @ ; % : O J N N * ; ; - - ; & * : O = o * o * ; t D ] v $ y @ > : c ",
" ...l @ % ; > % @ * o & - p 0 G ; O O : ; > - & % # ..d T c @ - p * 6 6 = _ * ; ; ; ; : & o > * = o = w : d } h } y % % ; : % @ ",
"] l g % ; - * p ; = = o & % l @ = X = ; % - - o % b A d g c q 7 * + . P O + O ; % - > > > o w w = w o > M a h ..0 M C ; : * p ; ",
"t ; ; : : : * * w + e O - % % : = > : ; ; ; - o ; v A $ L ; o : = 6 . 6 = O * % g & o o o * & o = = o : D h b t - ; : : > * * w ",
"- > > & * = o o > e . ! * : - ; - > & : ; ; ; ; ; % M d g ; = X O % : ; % ; N g M W o > > o * & > > > t z 9 t - * > & * w o o > ",
"> o o * * * > : > R n r = * - : > ; & * * : % B ; - K M N * o * t # $ $ 0 @ @ % % W V = = = o > > > - B # S % > o o * * * > : > ",
"/ + r o * > : * 6 . O o = 2 + e o - > o o * f A ; * : ; : ; @ ; b B @ % ; * : > & o = = = = w o = = o % y y ; + + = o o > > = P ",
"e 6 r w 2 O = e 5 . i o = H Y X ; t ^ % % Z N A - o : - - % G % t p & * = = o = = = = = O + + r o > o * ; p = 6 6 r w O 2 O 3 5 ",
"O + r o X X.k . 5 . 2 * o w > o...} b v S y g $ K % ; - 7 M g B @ * = = = = = o o = w w + 6 + = ; % - = O 2 + O + o o + 3 k . 5 ",
"= ; & O e 3 / + e e O.: @ m ..< l t t d g d l c L M ~ p % t l A ; O 6 e 6 = = = o o : : w O = = : : - > > * O = ; * O e +./ + 3 ",
"; ; ; o / 6 r e e 2 ` l a ....8 @ ; ; q q % t C G 7 p ; ; c 0 d * 6 e 3 3 / + = = o > > > = 6 e 6 O ; p - > > ; % q o 6 / r e e ",
"a # @ = 6 e 6 w r g $ S b } a N : & & o o & & - ; - ; @ @ ; : * 6 e 3 3 6 O r = = o w w w + 5   . O M l l A @.#.z % 2 6 e + w r ",
"a B = 6 6 + P - > m S b } z @ * o = o o = = w > - % ; g @ o O = O O O + O o o = = o = = + . $.%.. T A # a h h a B O 6 + 6 ! - > ",
"c = e . 3 6 6 * c # l b < y * = = = = = = w > o - ; ; c ; r O ; o = = = = r + + + = o = P %.$.k 3 B # 9 9 a } @ = 3 5 3 e 6 W L ",
"; 6 .   3 = > & #.z #.v M ; * = + + O = = = o > ; c f c Z = * @ ; O = * * = r O O > O O e E &.O f z v $ g g l % 6 5   e w > ; } ",
"6 4 5 n r = 2 - < *.] B - = + + O O = = o o > - - & q ; ; : o & ; o o > * = O = = = = e . 5 e d G g v 8 c =.O 6 4 5 / r r 2 p , ",
"O X r > = + = ; 8 < < t & o r = : = o o o o w o o o & & o = + o ; * o > * O + o 6 3 . 5 5 -.H # g N y M u ;.w O X = > 2 + = % 8 ",
"6 O * > 2 6 + & b < d : o = = = o = : = = - : o % L @ ~ ; X e o > o & > 2 6 + = . $.5 e e 3 : b d @ @ ; ; $ 0 + = > > O 6 X q a ",
"5 e r o = O + @ 9 $ N & o * = o o & ; : > : ; K a 9 b ) = +.e = e O = = O + = = . %.4 . 6 - G A 8 v t ; - p : 3 e r o = + O M 9 ",
"6 = : * O + = ; % y N & o o = o = o :.* w O ; >.,.y ; * = X e 3 3 O + 6 6 i w 3     . / * % @ c c G % & o r 6 6 w : * O + * ; % ",
"o & - * = * : o > ; d f o > > > o o o % ~ - ~ ] | t ; - 2 e . 4 O o = = = - % > e O r : ; - ; ; l g % & o = o o - - * = & : o > ",
"; O > 2 e e = y # f 0 0 ; > p d - - q % @ % c b <.@ & o 6 5 1.r ; 2.0 g t v v d > - * * > > - ; ; - : - > * ; q O > O e 6 * y # ",
"o + O e 3 6 3.z t ; A A M % ; ; > o & ; N N - g b 7 * e     3 - @ l ' B @ $ v ; o = o o o : @ ; ; ^ : > > > > o 6 O e 3 / 4.# @ ",
"o = 6 + + e e * > v b 0 % ; ; > - o o o o o o - ; > o e 5 e * G # @ % ; ; ; - o - - O O O * G ; S 3.: & o * q o = 6 O + e 6 * > ",
"e 3 3 e 3 . 3 = ; z D @ t t ; > - o o o & % ^ - @ % - F -.6 : b b % ; c % > > o > p O O O O g M G - t @ - & = 6 . e e 3 . e * ; ",
"e e 3 . . . e = ; z ..t - > - o o o o o > - - @ o O = 6 e O p 5.G f : - ; - > - > = = = O J G ; 8 :.6 O o = O e e . . . . 6 * ; ",
"e 5 5 3 e e O @ S c L S M & : = = = = + e + = > = 6 3 + ; 0 S ; K ; L N - * = + o = = 3 P & o > - G ; w 6 . 3 e   . 3 e e = g S ",
"e 3 w - : > p l ; ; d $ U + = o O 6 e 3 3 6 O 6 e . -.T l g @ C K K L % > * * 3 * 3 5 . i - - - - - - > / . e e 3 * - > I % 0 ; ",
"> o o o = : S @ - ^ * * - > = = O = 6 e e e 6.= = O N N f d S @ G $ % O + = +   + 7.  i & o o [ o o = > - : o > o o o r C l ^ - ",
"o > : = r ; y % - - * : ; : * + 6 > > & - ; % o - $ 8 $ $ A l G G ; * w i e 3 $.. 3 o * : @ g = o = > * * & o o : : = = % y % - ",
"6 6 3 J M d A 0 o 6 w * O = ; - o O : ; - p % > @ A A @ - : ; ; - 6 e n + = > > 6 r o > & o = o 4.> > * = = = 6 e 3 8.M B v g o ",
"- = 6 ; $ G L * 6 > - * & - o = = % % % % f c > ; y ^ q - - % ; ; O 3 / O + o = - ! O = : * 6 = = = O 6 6 w : - = 6 c $ G N = 6 ",
"= O 6 * c C q & > M c * f d = w - @ p & o o > ; 0 p > : % % ; - @ c = = > > * e = o - & * * = e e 6 6 e + O + = O 6 T N C : & > ",
"o 6 O * 7 @ - g @ & n 6 O.* - ; > % p - - & > - - - > : ; - > ; f ; > o o r + O = : % % N M ; = - = > > = = = = 6 = > ~ ~ ; g @ ",
"O o Z f ; - ; @ - w o & > * ; @ > ; - - & & q o ; * : : > & & @ $ u O = O O * ; ; l t ; : % % o o O = = = O = O o f f - - p ^ - "
};
